<?xml version="1.0" encoding="utf-8"?>
<!-- Generator: Adobe Illustrator 23.0.0, SVG Export Plug-In . SVG Version: 6.00 Build 0)  -->
<svg version="1.1" baseProfile="basic" id="Layer_1"
	 xmlns="http://www.w3.org/2000/svg" xmlns:xlink="http://www.w3.org/1999/xlink" x="0px" y="0px" viewBox="0 0 189.7 126.7"
	 xml:space="preserve">
<g>
	<g>
		<path opacity="0.1" fill-rule="evenodd" clip-rule="evenodd" fill="#4296D2" d="M20.5,19.5C34.1,6.3,60.4,1.2,72.9,4.2
			c14.4,3.4,28.8,7.2,37.8,6.4c17.7-1.7,30.5-19.3,57.6-4.9C192,18.2,200.1,64,171,94c-16.6,17.1-31.9,28-70.9,32.1
			C57.1,130.7-7.3,106.5,0.7,54.3C2.9,39.4,7.2,32.5,20.5,19.5z"/>
	</g>
	<g>
		<g>
			<path fill="#C8E1F0" stroke="#15405D" stroke-width="0.75" stroke-miterlimit="10" d="M139,73.2l-92.1,17
				c-1.8,0.3-3.4-0.8-3.7-2.6l-9.6-52c-0.3-1.7,0.8-3.4,2.6-3.7l92.1-17c1.7-0.3,3.4,0.9,3.7,2.6l9.6,52
				C141.9,71.2,140.8,72.9,139,73.2z"/>
			
				<rect x="35.7" y="33.6" transform="matrix(0.9824 -0.187 0.187 0.9824 -5.9874 16.6622)" fill="#66ABDB" width="99.2" height="13"/>
		</g>
		<g opacity="0.2">
			<path fill="#15405D" d="M71.7,77.9H59.6c-1.2,0-2.1-1-2.1-2.1v-9.6c0-1.2,1-2.1,2.1-2.1h12.1c1.2,0,2.1,1,2.1,2.1v9.6
				C73.8,77,72.9,77.9,71.7,77.9z"/>
			<circle fill="#15405D" cx="124.8" cy="69.8" r="8.4"/>
			<path fill="#15405D" d="M113.6,69.8c0-3.2,1.6-6,3.9-7.7c-1.1-0.4-2.1-0.7-3.4-0.7c-4.7,0-8.4,3.7-8.4,8.4c0,4.7,3.7,8.4,8.4,8.4
				c1.2,0,2.3-0.2,3.4-0.7C115.2,75.8,113.6,73,113.6,69.8z"/>
			<g>
				<path fill="#15405D" d="M67.9,99.1H54.1c-1.2,0-2.1-1-2.1-2.1l0,0c0-1.2,1-2.1,2.1-2.1h13.7c1.2,0,2.1,1,2.1,2.1l0,0
					C70,98.2,69,99.1,67.9,99.1z"/>
				<path fill="#15405D" d="M89.7,99.1H76c-1.2,0-2.1-1-2.1-2.1l0,0c0-1.2,1-2.1,2.1-2.1h13.7c1.2,0,2.1,1,2.1,2.1l0,0
					C91.8,98.2,90.9,99.1,89.7,99.1z"/>
				<path fill="#15405D" d="M112.2,99.1H98.5c-1.2,0-2.1-1-2.1-2.1l0,0c0-1.2,1-2.1,2.1-2.1h13.7c1.2,0,2.1,1,2.1,2.1l0,0
					C114.2,98.2,113.3,99.1,112.2,99.1z"/>
				<path fill="#15405D" d="M134,99.1h-13.7c-1.2,0-2.1-1-2.1-2.1l0,0c0-1.2,1-2.1,2.1-2.1H134c1.2,0,2.1,1,2.1,2.1l0,0
					C136.1,98.2,135.1,99.1,134,99.1z"/>
			</g>
		</g>
		<g>
			<path fill="#FFFFFF" stroke="#15405D" stroke-width="0.75" d="M143.2,105.5H49.5c-1.8,0-3.2-1.4-3.2-3.2V49.5
				c0-1.7,1.4-3.2,3.2-3.2h93.7c1.7,0,3.2,1.5,3.2,3.2v52.9C146.4,104,145,105.5,143.2,105.5z"/>
			<path fill="#A5CD5C" d="M74.1,74.4H61.9c-1.2,0-2.1-1-2.1-2.1v-9.6c0-1.2,1-2.1,2.1-2.1h12.1c1.2,0,2.1,1,2.1,2.1v9.6
				C76.2,73.4,75.2,74.4,74.1,74.4z"/>
			<circle fill="#F7B645" cx="127" cy="66.4" r="8.4"/>
			<path fill="#E35262" d="M115.8,66.4c0-3.2,1.6-6,3.9-7.7c-1.1-0.4-2.1-0.7-3.4-0.7c-4.7,0-8.4,3.7-8.4,8.4c0,4.7,3.7,8.4,8.4,8.4
				c1.2,0,2.3-0.2,3.4-0.7C117.4,72.4,115.8,69.5,115.8,66.4z"/>
			<g>
				<path fill="#8BBFE3" d="M70.1,95.6H56.4c-1.2,0-2.1-1-2.1-2.1l0,0c0-1.2,1-2.1,2.1-2.1h13.7c1.2,0,2.1,1,2.1,2.1l0,0
					C72.2,94.7,71.3,95.6,70.1,95.6z"/>
				<path fill="#8BBFE3" d="M92,95.6H78.2c-1.2,0-2.1-1-2.1-2.1l0,0c0-1.2,1-2.1,2.1-2.1H92c1.2,0,2.1,1,2.1,2.1l0,0
					C94.1,94.7,93.1,95.6,92,95.6z"/>
				<path fill="#8BBFE3" d="M114.4,95.6h-13.7c-1.2,0-2.1-1-2.1-2.1l0,0c0-1.2,1-2.1,2.1-2.1h13.7c1.2,0,2.1,1,2.1,2.1l0,0
					C116.6,94.7,115.6,95.6,114.4,95.6z"/>
				<path fill="#8BBFE3" d="M136.3,95.6h-13.7c-1.2,0-2.1-1-2.1-2.1l0,0c0-1.2,1-2.1,2.1-2.1h13.7c1.2,0,2.1,1,2.1,2.1l0,0
					C138.4,94.7,137.5,95.6,136.3,95.6z"/>
			</g>
		</g>
	</g>
</g>
</svg>
