<?xml version="1.0" encoding="utf-8"?>
<!-- Generator: Adobe Illustrator 23.0.0, SVG Export Plug-In . SVG Version: 6.00 Build 0)  -->
<svg version="1.1" baseProfile="basic" id="Layer_1"
	 xmlns="http://www.w3.org/2000/svg" xmlns:xlink="http://www.w3.org/1999/xlink" x="0px" y="0px" viewBox="0 0 153.5 115.9"
	 xml:space="preserve">
<g>
	<g>
		<path opacity="0.1" fill-rule="evenodd" clip-rule="evenodd" fill="#4296D2" d="M16.6,24.5C27.6,13.7,48.9,9.6,59,12.1
			c11.6,2.8,23.3,5.8,30.6,5.1c14.3-1.4,24.7-15.6,46.6-4c19.2,10.2,25.7,47.3,2.1,71.5c-13.4,13.8-25.8,22.6-57.4,26
			C46.2,114.5-5.9,94.9,0.5,52.6C2.4,40.6,5.8,35,16.6,24.5z"/>
		<g>
			<polygon fill="#EDD9C5" points="48,59.4 28,72.9 42.2,95.2 64.9,80.4 			"/>
			<polygon fill="none" stroke="#13405E" stroke-width="0.5" stroke-linecap="round" stroke-linejoin="round" points="48,59.4 
				28,72.9 42.2,95.2 64.9,80.4 			"/>
			<path fill="#EDD9C5" d="M36.8,69.4C33.3,58.5,38.5,46.7,49,42.3l24.2-10.1C86,26.9,104.8,72,92,77.3L67.8,87.4
				c-5.7,2.4-11.8,2.1-17.1-0.2"/>
			<path fill="none" stroke="#13405E" stroke-width="0.5" stroke-linecap="round" stroke-linejoin="round" d="M36.8,69.4
				C33.3,58.5,38.5,46.7,49,42.3l24.2-10.1C86,26.9,104.8,72,92,77.3L67.8,87.4c-5.7,2.4-11.8,2.1-17.1-0.2"/>
			<path fill="#EDD9C5" d="M109.7,35.5l-12.2,5.4L92.7,30l12.2-5.4c3-1.3,6.5,0,7.8,3l0.1,0.2C114,30.7,112.7,34.2,109.7,35.5z"/>
			<path fill="none" stroke="#13405E" stroke-width="0.5" stroke-linecap="round" stroke-linejoin="round" d="M109.7,35.5l-12.2,5.4
				L92.7,30l12.2-5.4c3-1.3,6.5,0,7.8,3l0.1,0.2C114,30.7,112.7,34.2,109.7,35.5z"/>
			<g>
				<g>
					<path fill="#F4FBFE" d="M98.6,93H58.8c-2.8,0-5.1-2.3-5.1-5.1V5.3c0-2.8,2.3-5.1,5.1-5.1h39.8c2.8,0,5.1,2.3,5.1,5.1v82.6
						C103.7,90.7,101.4,93,98.6,93z"/>
					<path fill="none" stroke="#13405E" stroke-width="0.5" stroke-linecap="round" stroke-linejoin="round" d="M98.6,93H58.8
						c-2.8,0-5.1-2.3-5.1-5.1V5.3c0-2.8,2.3-5.1,5.1-5.1h39.8c2.8,0,5.1,2.3,5.1,5.1v82.6C103.7,90.7,101.4,93,98.6,93z"/>
					<path fill="none" stroke="#13405E" stroke-width="0.5" stroke-linecap="round" stroke-linejoin="round" d="M98.6,93H58.8
						c-2.8,0-5.1-2.3-5.1-5.1V5.3c0-2.8,2.3-5.1,5.1-5.1h39.8c2.8,0,5.1,2.3,5.1,5.1v82.6C103.7,90.7,101.4,93,98.6,93z"/>
					<path fill="#FFFFFF" d="M98.6,93H58.8c-2.8,0-5.1-2.3-5.1-5.1V5.3c0-2.8,2.3-5.1,5.1-5.1h39.8c2.8,0,5.1,2.3,5.1,5.1v82.6
						C103.7,90.7,101.4,93,98.6,93z"/>
					<circle fill="#13405E" cx="97.5" cy="6.4" r="1.5"/>
					<path fill="none" stroke="#13405E" stroke-width="0.5" stroke-linecap="round" stroke-linejoin="round" d="M98.6,93H58.8
						c-2.8,0-5.1-2.3-5.1-5.1V5.3c0-2.8,2.3-5.1,5.1-5.1h39.8c2.8,0,5.1,2.3,5.1,5.1v82.6C103.7,90.7,101.4,93,98.6,93z"/>
				</g>
				<g>
					<g>
						<path fill="#89BEE2" d="M83.6,76.4l-10.1,0.3c-10.7-20-1.7-37.3,2.2-43.3c0.8-1.2,2.4-1.2,3.3-0.1
							C83.2,39,93.2,55.8,83.6,76.4z"/>
						<path fill="#DBEABE" d="M84.7,43.6l-14,0.4c1.6-4.7,3.7-8.4,5.1-10.6c0.8-1.2,2.5-1.2,3.3-0.1C80.5,35.4,82.8,38.9,84.7,43.6z
							"/>
						<path fill="none" stroke="#13405E" stroke-width="0.5" stroke-linecap="round" stroke-linejoin="round" d="M83.6,76.4
							l-10.1,0.3c-10.7-20-1.7-37.3,2.2-43.3c0.8-1.2,2.4-1.2,3.3-0.1C83.2,39,93.2,55.8,83.6,76.4z"/>
						<circle fill="#FFFFFF" cx="77.9" cy="52.6" r="3.8"/>
						<path fill="#DBEABE" d="M78.8,84.4L78.8,84.4c-0.7,0-1.3-0.5-1.3-1.2l-0.3-11.7c0-0.7,0.5-1.3,1.2-1.3h0
							c0.7,0,1.3,0.5,1.3,1.2L80,83.1C80.1,83.8,79.5,84.4,78.8,84.4z"/>
						<path fill="#DBEABE" d="M83.6,76.4c7.6-0.2,7.8,7.9,7.8,7.9c2.2-11.5-4.9-14.1-5.4-14.1C85.4,72.1,84.6,74.2,83.6,76.4z"/>
						<path fill="#DBEABE" d="M70.8,70.5c-0.5,0-7.4,3-4.6,14.4c0,0-0.2-8.1,7.3-8.3C72.4,74.6,71.5,72.5,70.8,70.5z"/>
						<path fill="none" stroke="#13405E" stroke-width="0.5" stroke-linecap="round" stroke-linejoin="round" d="M78.8,84.4
							L78.8,84.4c-0.7,0-1.3-0.5-1.3-1.2l-0.3-11.7c0-0.7,0.5-1.3,1.2-1.3h0c0.7,0,1.3,0.5,1.3,1.2L80,83.1
							C80.1,83.8,79.5,84.4,78.8,84.4z"/>
						<path fill="none" stroke="#13405E" stroke-width="0.5" stroke-linecap="round" stroke-linejoin="round" d="M83.6,76.4
							c7.6-0.2,7.8,7.9,7.8,7.9c2.2-11.5-4.9-14.1-5.4-14.1C85.4,72.1,84.6,74.2,83.6,76.4z"/>
						<path fill="none" stroke="#13405E" stroke-width="0.5" stroke-linecap="round" stroke-linejoin="round" d="M70.8,70.5
							c-0.5,0-7.4,3-4.6,14.4c0,0-0.2-8.1,7.3-8.3C72.4,74.6,71.5,72.5,70.8,70.5z"/>
					</g>
				</g>
				<g>
					<path fill="#4296D2" d="M66.1,22.4v-1.8c0-0.1,0-0.3,0-0.4c0-0.1,0-0.2,0.1-0.4C66.1,20,66,20,65.9,20.1
						c-0.1,0.1-0.2,0.1-0.3,0.2L64,21.2l-0.6-1l1.6-0.9c0.1-0.1,0.2-0.1,0.4-0.2c0.1,0,0.2-0.1,0.4-0.1c-0.1,0-0.2,0-0.4-0.1
						c-0.1-0.1-0.2-0.1-0.4-0.2l-1.6-0.9l0.6-1l1.6,0.9c0.1,0.1,0.2,0.1,0.3,0.2s0.2,0.2,0.3,0.3c0-0.1-0.1-0.2-0.1-0.4s0-0.3,0-0.4
						v-1.9h1.2v1.8c0,0.1,0,0.3,0,0.4c0,0.1,0,0.3-0.1,0.4c0.1-0.1,0.2-0.2,0.3-0.3c0.1-0.1,0.2-0.2,0.3-0.2l1.6-0.9l0.6,1l-1.6,0.9
						c-0.1,0.1-0.2,0.1-0.4,0.2C67.8,19,67.7,19,67.6,19c0.2,0,0.5,0.1,0.7,0.3l1.6,0.9l-0.6,1l-1.6-0.9c-0.1-0.1-0.2-0.1-0.3-0.2
						c-0.1-0.1-0.2-0.2-0.3-0.3c0.1,0.2,0.1,0.5,0.1,0.7v1.8H66.1z"/>
					<path fill="#4296D2" d="M74.1,22.4v-1.8c0-0.1,0-0.3,0-0.4c0-0.1,0-0.2,0.1-0.4C74.1,20,74,20,73.9,20.1
						c-0.1,0.1-0.2,0.1-0.3,0.2L72,21.2l-0.6-1l1.6-0.9c0.1-0.1,0.2-0.1,0.4-0.2c0.1,0,0.2-0.1,0.4-0.1c-0.1,0-0.2,0-0.4-0.1
						c-0.1-0.1-0.2-0.1-0.4-0.2l-1.6-0.9l0.6-1l1.6,0.9c0.1,0.1,0.2,0.1,0.3,0.2s0.2,0.2,0.3,0.3c0-0.1-0.1-0.2-0.1-0.4s0-0.3,0-0.4
						v-1.9h1.2v1.8c0,0.1,0,0.3,0,0.4c0,0.1,0,0.3-0.1,0.4c0.1-0.1,0.2-0.2,0.3-0.3c0.1-0.1,0.2-0.2,0.3-0.2l1.6-0.9l0.6,1l-1.6,0.9
						c-0.1,0.1-0.2,0.1-0.4,0.2C75.8,19,75.7,19,75.6,19c0.2,0,0.5,0.1,0.7,0.3l1.6,0.9l-0.6,1l-1.6-0.9c-0.1-0.1-0.2-0.1-0.3-0.2
						c-0.1-0.1-0.2-0.2-0.3-0.3c0.1,0.2,0.1,0.5,0.1,0.7v1.8H74.1z"/>
					<path fill="#4296D2" d="M82.1,22.4v-1.8c0-0.1,0-0.3,0-0.4c0-0.1,0-0.2,0.1-0.4C82.1,20,82,20,81.9,20.1
						c-0.1,0.1-0.2,0.1-0.3,0.2L80,21.2l-0.6-1l1.6-0.9c0.1-0.1,0.2-0.1,0.4-0.2c0.1,0,0.2-0.1,0.4-0.1c-0.1,0-0.2,0-0.4-0.1
						c-0.1-0.1-0.2-0.1-0.4-0.2l-1.6-0.9l0.6-1l1.6,0.9c0.1,0.1,0.2,0.1,0.3,0.2s0.2,0.2,0.3,0.3c0-0.1-0.1-0.2-0.1-0.4s0-0.3,0-0.4
						v-1.9h1.2v1.8c0,0.1,0,0.3,0,0.4c0,0.1,0,0.3-0.1,0.4c0.1-0.1,0.2-0.2,0.3-0.3c0.1-0.1,0.2-0.2,0.3-0.2l1.6-0.9l0.6,1l-1.6,0.9
						c-0.1,0.1-0.2,0.1-0.4,0.2C83.8,19,83.7,19,83.6,19c0.2,0,0.5,0.1,0.7,0.3l1.6,0.9l-0.6,1l-1.6-0.9c-0.1-0.1-0.2-0.1-0.3-0.2
						c-0.1-0.1-0.2-0.2-0.3-0.3c0.1,0.2,0.1,0.5,0.1,0.7v1.8H82.1z"/>
					<path fill="#4296D2" d="M90.1,22.4v-1.8c0-0.1,0-0.3,0-0.4c0-0.1,0-0.2,0.1-0.4C90.1,20,90,20,89.9,20.1
						c-0.1,0.1-0.2,0.1-0.3,0.2L88,21.2l-0.6-1l1.6-0.9c0.1-0.1,0.2-0.1,0.4-0.2c0.1,0,0.2-0.1,0.4-0.1c-0.1,0-0.2,0-0.4-0.1
						c-0.1-0.1-0.2-0.1-0.4-0.2l-1.6-0.9l0.6-1l1.6,0.9c0.1,0.1,0.2,0.1,0.3,0.2s0.2,0.2,0.3,0.3c0-0.1-0.1-0.2-0.1-0.4s0-0.3,0-0.4
						v-1.9h1.2v1.8c0,0.1,0,0.3,0,0.4c0,0.1,0,0.3-0.1,0.4c0.1-0.1,0.2-0.2,0.3-0.3c0.1-0.1,0.2-0.2,0.3-0.2l1.6-0.9l0.6,1l-1.6,0.9
						c-0.1,0.1-0.2,0.1-0.4,0.2C91.8,19,91.7,19,91.6,19c0.2,0,0.5,0.1,0.7,0.3l1.6,0.9l-0.6,1l-1.6-0.9c-0.1-0.1-0.2-0.1-0.3-0.2
						c-0.1-0.1-0.2-0.2-0.3-0.3c0.1,0.2,0.1,0.5,0.1,0.7v1.8H90.1z"/>
				</g>
			</g>
			<path fill="#EDD9C5" d="M38.5,72.9c0,0-8.9-12.4,4.7-28.3c4.3-5.1,5.7-22.4,5.7-22.4c0-5.5,10.5-5.5,10.5,0c0,0,0,3,0,18.3
				c0,15.3,0.4,22.6-5.5,28"/>
			<g>
				<path fill="#EAD0B9" d="M39.3,62.6c-0.6-4.6,1.1-8.5,2.2-10.3c2.8-4.3,4.6-10.7,5.8-18.1c-0.9,4.1-2.2,8.1-3.9,10.2
					c-9,11.1-8.2,18.3-6.7,24.3c0.3,1,2,4.3,1.9,4.1l0,0l1.3-1.1C41.6,68.4,40,67.5,39.3,62.6z"/>
			</g>
			<path fill="#EDD9C5" d="M106.6,48.6l-3.8,1.7c-2.7,1.2-5.9,0-7.1-2.7l0,0c-1.2-2.7,0-5.9,2.7-7.1l3.8-1.7c2.7-1.2,5.9,0,7.1,2.7
				l0,0C110.6,44.2,109.4,47.4,106.6,48.6z"/>
			<path opacity="0.5" fill="#FFFFFF" d="M106.1,46.6l-4.4,2c-0.3-2-1.1-4.1-2.7-6l4.4-2C105.3,42,106.1,44,106.1,46.6z"/>
			<path fill="#EDD9C5" d="M106.8,60.8l-4,1.2c-2.8,0.8-5.8-0.8-6.7-3.6l0,0c-0.8-2.8,0.8-5.8,3.6-6.7l4-1.2
				c2.8-0.8,5.8,0.8,6.7,3.6l0,0C111.3,57,109.7,60,106.8,60.8z"/>
			<path opacity="0.5" fill="#FFFFFF" d="M106.6,58.6l-4.6,1.5c-0.1-2.1-0.7-4.2-2.1-6.3l4.6-1.5C106.3,53.9,106.9,56,106.6,58.6z"
				/>
			<path fill="#EDD9C5" d="M104.1,72.8L104.1,72.8c-2.8,0.8-5.8-0.8-6.7-3.6l0,0c-0.8-2.8,0.8-5.8,3.6-6.7l0,0
				c2.8-0.8,5.8,0.8,6.7,3.6l0,0C108.5,69,106.9,72,104.1,72.8z"/>
			<path fill="none" stroke="#13405E" stroke-width="0.5" stroke-linecap="round" stroke-linejoin="round" d="M106.6,48.6l-3.8,1.7
				c-2.7,1.2-5.9,0-7.1-2.7l0,0c-1.2-2.7,0-5.9,2.7-7.1l3.8-1.7c2.7-1.2,5.9,0,7.1,2.7l0,0C110.6,44.2,109.4,47.4,106.6,48.6z"/>
			<path fill="none" stroke="#13405E" stroke-width="0.5" stroke-linecap="round" stroke-linejoin="round" d="M106.8,60.8l-4,1.2
				c-2.8,0.8-5.8-0.8-6.7-3.6l0,0c-0.8-2.8,0.8-5.8,3.6-6.7l4-1.2c2.8-0.8,5.8,0.8,6.7,3.6l0,0C111.3,57,109.7,60,106.8,60.8z"/>
			<path fill="none" stroke="#13405E" stroke-width="0.5" stroke-linecap="round" stroke-linejoin="round" d="M104.1,72.8
				L104.1,72.8c-2.8,0.8-5.8-0.8-6.7-3.6l0,0c-0.8-2.8,0.8-5.8,3.6-6.7l0,0c2.8-0.8,5.8,0.8,6.7,3.6l0,0
				C108.5,69,106.9,72,104.1,72.8z"/>
			<path opacity="0.5" fill="#FFFFFF" d="M106,69.8l-2.5,0.8c0.4-1.9-0.2-3.8-2-5.9l2.5-0.8C106,65.3,106.6,67.3,106,69.8z"/>
			<path fill="#FFFFFF" d="M40.2,99.8L21.3,75.3c-1-1.3-0.8-3.2,0.5-4.2l5.3-4.1c1.3-1,3.2-0.8,4.2,0.5l18.9,24.5
				c1,1.3,0.8,3.2-0.5,4.2l-5.3,4.1C43,101.4,41.2,101.1,40.2,99.8z"/>
			<path fill="none" stroke="#13405E" stroke-width="0.5" stroke-linecap="round" stroke-linejoin="round" d="M40.2,99.8L21.3,75.3
				c-1-1.3-0.8-3.2,0.5-4.2l5.3-4.1c1.3-1,3.2-0.8,4.2,0.5l18.9,24.5c1,1.3,0.8,3.2-0.5,4.2l-5.3,4.1C43,101.4,41.2,101.1,40.2,99.8
				z"/>
			<path fill="#89BEE2" d="M27.9,115.2c-6.1,4.7-31.2-27.9-25.1-32.6l17.7-13.5l25.1,32.6L27.9,115.2z"/>
			<path fill="none" stroke="#13405E" stroke-width="0.5" stroke-linecap="round" stroke-linejoin="round" d="M27.9,115.2
				c-6.1,4.7-31.2-27.9-25.1-32.6l17.7-13.5l25.1,32.6L27.9,115.2z"/>
			<path fill="none" stroke="#13405E" stroke-width="0.5" stroke-linecap="round" stroke-linejoin="round" d="M38.5,72.9
				c0,0-8.9-12.4,4.7-28.3c4.3-5.1,5.7-22.4,5.7-22.4c0-5.5,10.5-5.5,10.5,0c0,0,0,3,0,18.3c0,15.3,0.4,22.6-5.5,28"/>
		</g>
	</g>
</g>
</svg>
