<?xml version="1.0" encoding="utf-8"?>
<!-- Generator: Adobe Illustrator 23.0.0, SVG Export Plug-In . SVG Version: 6.00 Build 0)  -->
<svg version="1.1" baseProfile="basic" id="Layer_1"
	 xmlns="http://www.w3.org/2000/svg" xmlns:xlink="http://www.w3.org/1999/xlink" x="0px" y="0px" viewBox="0 0 220.8 49.4"
	 xml:space="preserve">
<g>
	<defs>
		<rect id="SVGID_4_" width="220.8" height="49.4"/>
	</defs>
	<clipPath id="SVGID_2_">
		<use xlink:href="#SVGID_4_"  overflow="visible"/>
	</clipPath>
	<linearGradient id="SVGID_3_" gradientUnits="userSpaceOnUse" x1="-73.5026" y1="25.4439" x2="219.03" y2="25.4439">
		<stop  offset="0" style="stop-color:#FFFFFF"/>
		<stop  offset="1" style="stop-color:#FFFFFF;stop-opacity:0.3"/>
	</linearGradient>
	<path opacity="0.12" clip-path="url(#SVGID_2_)" fill="url(#SVGID_3_)" d="M219,49.4H-73.5l2.9-1.2c8.3-3.5,14.7-9.8,20.8-16.4
		C-44,25.4-39,20.3-37.5,19C-26.6,9.2-17-1.9,7.2,2.5c29.5,5.4,19.9,30.9,51.2,17.4c10-4.3,26.2-15,44.3,1.9
		c2.5,2.4,5.2,4.8,10.1,6.4c7.5,2.4,17.6,1.7,27.7-4.5c5-3.1,11.1-4.4,17.5-4.4c14.1-0.2,27.6,5.8,37.3,16
		C200.9,41.4,210.1,49.4,219,49.4z"/>
</g>
</svg>
