<svg id="Layer_1" data-name="Layer 1" xmlns="http://www.w3.org/2000/svg" viewBox="0 0 64.42 45.75"><defs><style>.cls-1{fill:#9fcaec;}.cls-2{fill:none;stroke:#11405d;stroke-linecap:round;stroke-linejoin:round;stroke-width:0.5px;}.cls-3{fill:#edf5fc;}.cls-4{fill:#c7e0ef;fill-rule:evenodd;opacity:0.75;}</style></defs><title>Support Center_Ionic</title><path class="cls-1" d="M5.7,3.87V36.28a3.64,3.64,0,0,0,3.64,3.64H60.53l.42,0a3.64,3.64,0,0,0,3.22-3.61V3.89A3.65,3.65,0,0,0,60.53.25H9.34l-.42,0A3.66,3.66,0,0,0,5.7,3.87Z"/><path class="cls-2" d="M53.71.25h6.82a3.65,3.65,0,0,1,3.64,3.64V36.28a3.65,3.65,0,0,1-3.64,3.64H9.34A3.64,3.64,0,0,1,5.7,36.28V3.89A3.64,3.64,0,0,1,9.34.25H47.12"/><path class="cls-3" d="M58.71,9.45V41.86a3.62,3.62,0,0,1-3.64,3.64H3.89a3,3,0,0,1-.42,0A3.64,3.64,0,0,1,.25,41.86V9.47A3.65,3.65,0,0,1,3.89,5.83H55.07l.43,0A3.64,3.64,0,0,1,58.71,9.45Z"/><path class="cls-4" d="M50.51,45.5H3.36a2.1,2.1,0,0,1-.36,0A3.1,3.1,0,0,1,.25,42.39V30.85a36.37,36.37,0,0,1,3.41-1.58c5.5-2.31,13.73-.76,17,1.53s6.38,4.57,8.94,5.68A7.91,7.91,0,0,0,31,37a13.72,13.72,0,0,0,4.12.42c4.15,0,8.55-.71,13.22,4.77A29.6,29.6,0,0,1,50.51,45.5Z"/><path class="cls-2" d="M10.71,5.83H3.89A3.65,3.65,0,0,0,.25,9.47V41.86A3.65,3.65,0,0,0,3.89,45.5H55.07a3.64,3.64,0,0,0,3.64-3.64V9.47a3.64,3.64,0,0,0-3.64-3.64H17.3"/><path class="cls-2" d="M1.4,44.42,29.24,25.67"/><path class="cls-2" d="M57.57,44.42,29.24,25.67"/><path class="cls-1" d="M.46,10,22.93,28.19a10.39,10.39,0,0,0,13,0L58.49,10,36.4,30.13a10.4,10.4,0,0,1-13.93,0Z"/><circle class="cls-1" cx="29.48" cy="30.55" r="7.91"/><path class="cls-2" d="M58.71,9.59,35.9,27.92a10.24,10.24,0,0,1-2.07,1.35,10.4,10.4,0,0,1-4.4,1h0a10.37,10.37,0,0,1-4.41-1A10.88,10.88,0,0,1,23,27.91L.25,9.59"/><circle class="cls-3" cx="29.48" cy="28.65" r="8.07"/><circle class="cls-2" cx="29.48" cy="28.65" r="8.07"/><circle class="cls-2" cx="29.48" cy="28.65" r="1.48"/><path class="cls-2" d="M31,27.17V29a1.11,1.11,0,0,0,2.22,0v-.37a3.7,3.7,0,1,0-2.31,3.44"/></svg>