<svg id="Layer_1" data-name="Layer 1" xmlns="http://www.w3.org/2000/svg" viewBox="0 0 66.98 52.51"><defs><style>.cls-1{fill:#9fcaec;}.cls-2{fill:none;stroke:#11405d;stroke-linecap:round;stroke-linejoin:round;stroke-width:0.5px;}.cls-3{fill:#edf5fc;}.cls-4{fill:#c7e0ef;fill-rule:evenodd;opacity:0.75;}.cls-5{fill:#4296d2;}</style></defs><title>Support Center_Ionic</title><path class="cls-1" d="M66.73,31.71v-3.1a3.7,3.7,0,0,0-3.53-3.7L38.69,25a3.69,3.69,0,0,0-3.84,3.68V44.35A3.68,3.68,0,0,0,38.12,48s9.32,0,9.32,0a11.48,11.48,0,0,0,7.5,4.23C52.79,50,53.2,48,53.2,48l9.93,0a3,3,0,0,0,.69-.09,3.71,3.71,0,0,0,2.91-3.61V31.71Z"/><path class="cls-2" d="M66.73,36.51v-7.9a3.7,3.7,0,0,0-3.53-3.7H61.29"/><path class="cls-2" d="M56.93,24.94,38.69,25a3.69,3.69,0,0,0-3.84,3.68V44.35A3.68,3.68,0,0,0,38.12,48s9.32,0,9.32,0a11.48,11.48,0,0,0,7.5,4.23C52.79,50,53.2,48,53.2,48l9.93,0a3,3,0,0,0,.69-.09,3.71,3.71,0,0,0,2.91-3.61"/><path class="cls-3" d="M.25,11.72V6.48a6.24,6.24,0,0,1,6-6.23L49,.43a6.22,6.22,0,0,1,6.47,6.2V33a6.2,6.2,0,0,1-5.51,6.18s-17.14,0-17.14,0a19.33,19.33,0,0,1-12.64,7.13c3.63-3.81,2.94-7.13,2.94-7.13l-16.75,0a4.8,4.8,0,0,1-1.17-.15A6,6,0,0,1,2,37.22,6.06,6.06,0,0,1,.25,33V11.72Z"/><path class="cls-4" d="M55.43,20.11V33a6.2,6.2,0,0,1-5.51,6.18s-17.14,0-17.14,0a19.33,19.33,0,0,1-12.64,7.13c3.63-3.81,2.94-7.13,2.94-7.13l-16.75,0a4.8,4.8,0,0,1-1.17-.15A6,6,0,0,1,2,37.22c5.12-6.17,15.31-9.92,20.64-9.59,6.41.39,12.88.93,16.69-.09C44.86,26,48.6,20.86,55.43,20.11Z"/><path class="cls-2" d="M16.77.29,49,.43a6.22,6.22,0,0,1,6.47,6.2V33a6.2,6.2,0,0,1-5.51,6.18s-17.14,0-17.14,0a19.33,19.33,0,0,1-12.64,7.13c3.63-3.81,2.94-7.13,2.94-7.13l-16.75,0a4.8,4.8,0,0,1-1.17-.15A6,6,0,0,1,2,37.22,6.06,6.06,0,0,1,.25,33V6.48a6.24,6.24,0,0,1,6-6.23H9.43"/><path class="cls-5" d="M20.31,14.39V15.5H15.49V19h4.12v1.1H15.49v4.32H14.13v-10Z"/><path class="cls-5" d="M29.38,24.43H28.33a.44.44,0,0,1-.29-.1.5.5,0,0,1-.17-.23l-.94-2.42h-4.5l-.94,2.42a.53.53,0,0,1-.17.23.44.44,0,0,1-.29.1H20l4-10h1.38ZM22.81,20.7h3.74L25,16.62a8.83,8.83,0,0,1-.3-.94c-.05.19-.1.36-.15.52s-.1.31-.15.43Z"/><path class="cls-5" d="M39.67,19.41a6.57,6.57,0,0,1-.14,1.35,5.49,5.49,0,0,1-.42,1.18,4.56,4.56,0,0,1-.66,1,4.7,4.7,0,0,1-.89.78l2.58,2.78H39a1.52,1.52,0,0,1-.45-.07.84.84,0,0,1-.35-.25l-1.77-1.92a5.58,5.58,0,0,1-.83.2,5.29,5.29,0,0,1-.9.07,5.37,5.37,0,0,1-2-.37,4.63,4.63,0,0,1-1.57-1.06,4.76,4.76,0,0,1-1-1.62,6.13,6.13,0,0,1,0-4.14,5,5,0,0,1,1-1.62,4.63,4.63,0,0,1,1.57-1.06,5.18,5.18,0,0,1,2-.38,5.27,5.27,0,0,1,2,.38,4.63,4.63,0,0,1,1.57,1.06,4.8,4.8,0,0,1,1,1.62A5.77,5.77,0,0,1,39.67,19.41Zm-1.39,0A5.36,5.36,0,0,0,38,17.75a3.52,3.52,0,0,0-.72-1.24,3.06,3.06,0,0,0-1.12-.78,3.85,3.85,0,0,0-1.47-.27,3.8,3.8,0,0,0-1.46.27,3.06,3.06,0,0,0-1.12.78,3.52,3.52,0,0,0-.72,1.24,5.64,5.64,0,0,0,0,3.32,3.52,3.52,0,0,0,.72,1.24,3,3,0,0,0,1.12.77,3.8,3.8,0,0,0,1.46.27,3.85,3.85,0,0,0,1.47-.27,3,3,0,0,0,1.12-.77A3.52,3.52,0,0,0,38,21.07,5.31,5.31,0,0,0,38.28,19.41Z"/></svg>