<svg id="Layer_1" data-name="Layer 1" xmlns="http://www.w3.org/2000/svg" xmlns:xlink="http://www.w3.org/1999/xlink" viewBox="0 0 50.77 57.35"><defs><style>.cls-1,.cls-4,.cls-5{fill:none;}.cls-2{fill:#edf5fc;}.cls-3,.cls-7{fill:#c7e0ef;opacity:0.75;}.cls-3{fill-rule:evenodd;}.cls-4{stroke:#8ec0e3;}.cls-4,.cls-5{stroke-linecap:round;stroke-linejoin:round;stroke-width:0.5px;}.cls-5{stroke:#13405e;}.cls-6{clip-path:url(#clip-path);}.cls-8{fill:#9fcaec;}</style><clipPath id="clip-path"><circle class="cls-1" cx="25.03" cy="16.46" r="6.94"/></clipPath></defs><title>Support Center_Ionic</title><path class="cls-2" d="M42.5.25V57.1H5.06A4.81,4.81,0,0,1,.25,52.29V5.06a4.34,4.34,0,0,1,.1-1,4.58,4.58,0,0,1,.28-.91,3.23,3.23,0,0,1,.2-.42A6,6,0,0,1,1.35,2a3.52,3.52,0,0,1,.31-.35A4.83,4.83,0,0,1,5.06.25Z"/><path class="cls-3" d="M42.5,40.64V57.1H5.06A4.81,4.81,0,0,1,.25,52.29V30.7a30,30,0,0,1,3-1.39,15.51,15.51,0,0,1,6.53-1,17.51,17.51,0,0,1,8.46,2.32A77.2,77.2,0,0,0,24.73,35a14.66,14.66,0,0,0,1.37.69,7.33,7.33,0,0,0,1.18.46,12.15,12.15,0,0,0,3.63.37C34.54,36.44,38.4,35.85,42.5,40.64Z"/><path class="cls-2" d="M42.5,47.49V57.1H5.06A4.81,4.81,0,0,1,.25,52.29v-.06a1.27,1.27,0,0,1,0-.2,4.68,4.68,0,0,1,.08-.51,4.4,4.4,0,0,1,.42-1.36L1,49.72l.13-.21a5.15,5.15,0,0,1,.53-.61,4.83,4.83,0,0,1,3.4-1.41Z"/><line class="cls-4" x1="42.51" y1="52.3" x2="16.94" y2="52.3"/><path class="cls-5" d="M42.5,16.57V57.1H5.06A4.81,4.81,0,0,1,.25,52.29V5.06a4.34,4.34,0,0,1,.1-1,4.58,4.58,0,0,1,.28-.91,3.23,3.23,0,0,1,.2-.42A6,6,0,0,1,1.35,2a3.52,3.52,0,0,1,.31-.35A4.83,4.83,0,0,1,5.06.25H42.5V9.9"/><line class="cls-5" x1="7.55" y1="47.49" x2="7.55" y2="0.32"/><path class="cls-5" d="M42.5,47.49V57.1H5.06A4.81,4.81,0,0,1,.25,52.29v-.06a1.27,1.27,0,0,1,0-.2,4.68,4.68,0,0,1,.08-.51,4.4,4.4,0,0,1,.42-1.36L1,49.72l.13-.21a5.15,5.15,0,0,1,.53-.61,4.83,4.83,0,0,1,3.4-1.41Z"/><g class="cls-6"><circle class="cls-2" cx="25.03" cy="16.46" r="6.94"/><path class="cls-5" d="M25.88,25.64h-5V21.77A2.24,2.24,0,0,1,21,21a2.2,2.2,0,0,1,2.09-1.48H27a2.18,2.18,0,0,1,1.61.69,2.06,2.06,0,0,1,.37.52,2.11,2.11,0,0,1,.24,1v3.87h-3.3Z"/><path class="cls-5" d="M27.24,15.45a2.17,2.17,0,0,1-.34,1.18,2.2,2.2,0,0,1-3.75,0,2.14,2.14,0,0,1-.34-1.17,2.09,2.09,0,0,1,.21-.94,2.21,2.21,0,0,1,4.06.12A2,2,0,0,1,27.24,15.45Z"/></g><circle class="cls-5" cx="25.03" cy="16.46" r="6.94"/><path class="cls-2" d="M42.54,41.76a9.33,9.33,0,0,1-8.15-16.39,9.73,9.73,0,0,1,3.27-1.62,9.33,9.33,0,0,1,4.88,18Z"/><path class="cls-7" d="M47.09,36.77a8.09,8.09,0,0,1-8,4l-.17,0A8.06,8.06,0,0,1,38,25c.31-.08.63-.15.95-.2a8.06,8.06,0,0,1,8.15,12Z"/><path class="cls-2" d="M43.84,36.77a8,8,0,0,1-5.84,4,7.91,7.91,0,0,1-2.81-1A8.07,8.07,0,0,1,37.09,25c.31-.08.63-.15.95-.2a8.18,8.18,0,0,1,2.83,1A8.06,8.06,0,0,1,43.84,36.77Z"/><path class="cls-8" d="M50.34,48l-4.43-7.71a9.55,9.55,0,0,0,2.42-2.78,9.48,9.48,0,1,0-5.75,4.44,7.16,7.16,0,0,0,.89-.3l4.43,7.75A1.41,1.41,0,0,0,50.34,48Zm-8.47-8.67A6.77,6.77,0,0,1,36,27.4a6.94,6.94,0,0,1,2.37-1.18,6.77,6.77,0,1,1,3.54,13.07Z"/><path class="cls-5" d="M50.34,48l-4.43-7.71a9.55,9.55,0,0,0,2.42-2.78,9.48,9.48,0,1,0-5.75,4.44,7.16,7.16,0,0,0,.89-.3l4.43,7.75A1.41,1.41,0,0,0,50.34,48Z"/></svg>