<svg id="Design" xmlns="http://www.w3.org/2000/svg" viewBox="0 0 68.67 51.9"><defs><style>.cls-1{fill:#fff;}.cls-1,.cls-4{fill-rule:evenodd;}.cls-2{fill:#87bee2;}.cls-3{fill:none;stroke:#133f5d;stroke-linecap:round;stroke-linejoin:round;stroke-width:0.5px;}.cls-4{fill:#4198d3;opacity:0.3;}.cls-5{fill:#cfe3ae;}</style></defs><title>Company Email dan User Email 3.0</title><path class="cls-1" d="M14,1.31C20.37-1.35,29.91.43,33.73,3.1c4.39,3.06,8.75,6.26,11.91,7.17,6.19,1.79,12.85-2.46,20.08,6C72,23.68,67.61,37.36,58.18,43c-7.41,4.44-13.71,7.61-31.51,4.85C11.2,45.47-6.93,27,2.69,10.42,5.43,5.7,7.78,3.92,14,1.31Z"/><rect class="cls-2" x="33.7" y="31.16" width="28.65" height="12.32" transform="translate(85.34 -10.7) rotate(90)"/><rect class="cls-3" x="33.7" y="31.16" width="28.65" height="12.32" transform="translate(85.34 -10.7) rotate(90)"/><line class="cls-3" x1="41.86" y1="33.75" x2="54.04" y2="33.75"/><line class="cls-3" x1="41.86" y1="38.75" x2="54.04" y2="38.75"/><line class="cls-3" x1="41.86" y1="28.75" x2="54.04" y2="28.75"/><rect class="cls-2" x="19.08" y="5.21" width="18.33" height="7.38"/><polygon class="cls-2" points="41.65 51.64 14.6 51.64 14.6 12.86 41.56 12.65 41.87 40.32 41.65 51.64"/><path class="cls-4" d="M41.87,12.64v5.77a23.55,23.55,0,0,1-5.6-.31c-5.38-.83-11.66-7.09-9-12.89H37.4v7.43Z"/><path class="cls-4" d="M41.84,48.82v2.83H14.61V45.76a11.13,11.13,0,0,1,4.08-2.46,12,12,0,0,1,9.61.86c2.13,1.49,4.25,3.05,5.79,3.49C36.51,48.36,39.09,47.16,41.84,48.82Z"/><rect class="cls-5" x="24.76" y="37.9" width="6.96" height="13.74"/><rect class="cls-3" x="24.76" y="37.9" width="6.96" height="13.74"/><polygon class="cls-3" points="14.61 24.42 14.61 51.64 41.88 51.64 41.88 12.65 14.61 12.65 14.61 17.59 14.61 24.42"/><rect class="cls-3" x="19.08" y="5.21" width="18.33" height="7.38"/><rect class="cls-2" x="23.87" y="29.49" width="3.3" height="2.83"/><rect class="cls-2" x="23.87" y="24.44" width="3.3" height="2.83"/><rect class="cls-2" x="29.33" y="29.49" width="3.3" height="2.83"/><rect class="cls-2" x="29.33" y="24.44" width="3.3" height="2.83"/><rect class="cls-3" x="23.87" y="29.49" width="3.3" height="2.83"/><rect class="cls-3" x="23.87" y="24.44" width="3.3" height="2.83"/><rect class="cls-3" x="29.33" y="29.49" width="3.3" height="2.83"/><rect class="cls-3" x="29.33" y="24.44" width="3.3" height="2.83"/></svg>