<svg id="Design" xmlns="http://www.w3.org/2000/svg" viewBox="0 0 68.67 51.9"><defs><style>.cls-1{fill:#fff;}.cls-1,.cls-3,.cls-7{fill-rule:evenodd;}.cls-2{fill:#87bee2;}.cls-3{fill:#4198d3;opacity:0.3;}.cls-4{fill:none;}.cls-4,.cls-8{stroke:#133f5d;stroke-linecap:round;stroke-linejoin:round;stroke-width:0.5px;}.cls-5{fill:#e9cfb7;}.cls-6{fill:#cfe3ae;}.cls-7{fill:#a6cf5d;opacity:0.4;}.cls-8{fill:#3a5162;}</style></defs><title>Company Email dan User Email 3.0</title><path class="cls-1" d="M14,1.31C20.37-1.35,29.91.43,33.73,3.1c4.39,3.06,8.75,6.26,11.91,7.17,6.19,1.79,12.85-2.46,20.08,6C72,23.68,67.61,37.36,58.18,43c-7.41,4.44-13.71,7.61-31.51,4.85C11.2,45.47-6.93,27,2.69,10.42,5.43,5.7,7.78,3.92,14,1.31Z"/><rect class="cls-2" x="18.47" y="5.21" width="18.33" height="7.38"/><polygon class="cls-2" points="41.03 51.64 13.99 51.64 13.99 12.86 40.95 12.65 41.26 40.32 41.03 51.64"/><path class="cls-3" d="M41.23,48.82v2.83H14V45.76a11.13,11.13,0,0,1,4.08-2.46,12,12,0,0,1,9.61.86c2.13,1.49,4.25,3.05,5.78,3.49C35.9,48.36,38.48,47.16,41.23,48.82Z"/><path class="cls-3" d="M41.26,12.64v5.77a23.55,23.55,0,0,1-5.6-.31C30.28,17.27,24,11,26.71,5.21H36.79v7.43Z"/><rect class="cls-2" x="24.15" y="37.9" width="6.96" height="13.74"/><rect class="cls-4" x="24.15" y="37.9" width="6.96" height="13.74"/><polygon class="cls-4" points="13.99 24.42 13.99 51.64 41.27 51.64 41.27 12.65 13.99 12.65 13.99 17.59 13.99 24.42"/><rect class="cls-4" x="18.47" y="5.21" width="18.33" height="7.38"/><rect class="cls-2" x="23.25" y="29.49" width="3.3" height="2.83"/><rect class="cls-2" x="23.25" y="24.44" width="3.3" height="2.83"/><rect class="cls-2" x="28.71" y="29.49" width="3.3" height="2.83"/><rect class="cls-2" x="28.71" y="24.44" width="3.3" height="2.83"/><rect class="cls-4" x="23.25" y="29.49" width="3.3" height="2.83"/><rect class="cls-4" x="23.25" y="24.44" width="3.3" height="2.83"/><rect class="cls-4" x="28.71" y="29.49" width="3.3" height="2.83"/><rect class="cls-4" x="28.71" y="24.44" width="3.3" height="2.83"/><rect class="cls-5" x="41.43" y="37.49" width="5.02" height="4.01"/><rect class="cls-5" x="41.43" y="37.49" width="5.02" height="4.01"/><rect class="cls-4" x="41.43" y="37.49" width="5.02" height="4.01"/><path class="cls-6" d="M54.68,51.65H33.74L34,48.81l.33-4.49a3.33,3.33,0,0,1,1.77-2.52l5-1.47.27-.09.15.07a5.47,5.47,0,0,0,4.95-.07h0l5.94,1.69A3,3,0,0,1,54,44.05l.07.77Z"/><path class="cls-7" d="M54.68,51.65H33.74L34,47.78a21.11,21.11,0,0,0,7.45.13,22.15,22.15,0,0,0,5.24-2.61c1.5-.87,5.7-1.45,7.44.56Z"/><path class="cls-4" d="M41.34,40.24,36.05,41.8a3.33,3.33,0,0,0-1.77,2.52l-.54,7.33H54.68L54,44.05a3,3,0,0,0-1.63-2.12l-5.94-1.69h0a5.44,5.44,0,0,1-4.95.07Z"/><path class="cls-5" d="M48.08,34.88a4.64,4.64,0,0,1-3.9,3.85,4.55,4.55,0,0,1-2.74-1,4.83,4.83,0,0,1-1.57-2.83s-.89-.14-1.07-1.59.07-1.85.7-1.7l-.14-2.17,0-.83h9.27l-.25,2.81s.76,0,.76.91S49.17,34.63,48.08,34.88Z"/><path class="cls-4" d="M39.87,34.88S39,34.74,38.8,33.3s.07-1.86.7-1.71l-.19-3h9.28l-.26,2.81s.76,0,.76.91.08,2.32-1,2.57a4.64,4.64,0,0,1-3.91,3.85A4.44,4.44,0,0,1,39.87,34.88Z"/><path class="cls-8" d="M48.34,31.34c-.19-2.22-1.67-2.15-1.67-2.15s-4.89,0-6,0-1.22,2.45-1.22,2.45-.32-2.37-.29-3.12a1.53,1.53,0,0,1,.86-1.4,1.26,1.26,0,0,0,.34-.21,3.85,3.85,0,0,0,.53-.56c.64-1.11,3.15-.94,3.15-.94,3.36.13,4.14,1.34,4.48,2.43A9.35,9.35,0,0,1,48.34,31.34Z"/><path class="cls-4" d="M48.34,31.34c-.19-2.22-1.67-2.15-1.67-2.15s-4.89,0-6,0-1.22,2.45-1.22,2.45-.32-2.37-.29-3.12a1.53,1.53,0,0,1,.86-1.4,1.26,1.26,0,0,0,.34-.21,3.85,3.85,0,0,0,.53-.56c.64-1.11,3.15-.94,3.15-.94,3.36.13,4.14,1.34,4.48,2.43A9.35,9.35,0,0,1,48.34,31.34Z"/></svg>