<svg id="Design" xmlns="http://www.w3.org/2000/svg" viewBox="0 0 238.95 148.05"><defs><style>.cls-1{fill:#4196d2;opacity:0.1;}.cls-1,.cls-5{fill-rule:evenodd;}.cls-2{fill:#a5cfeb;}.cls-3{fill:#d4e5ef;}.cls-4{fill:#cfe2f1;}.cls-5{fill:#f5f9fc;opacity:0.3;}.cls-6{fill:none;stroke:#113f5d;stroke-linecap:round;stroke-linejoin:round;stroke-width:0.5px;}.cls-7{fill:#3e95d1;}.cls-8{fill:#d8eaf6;}.cls-9{fill:#fff;}.cls-10{fill:#a2ce5a;}</style></defs><title>Company Email dan User Email 3.0</title><path class="cls-1" d="M41.33,22.8C57.26,7.31,88,1.38,102.58,4.86c16.77,4,33.63,8.44,44.17,7.43,20.65-1.95,35.6-22.56,67.28-5.72,27.7,14.73,37.1,68.21,3.07,103.28-19.36,20-37.26,32.7-82.84,37.56C84.11,152.75,8.87,124.47,18.15,63.47,20.79,46.07,25.74,38,41.33,22.8Z"/><polygon class="cls-2" points="148.36 145.35 134.26 147.22 134.26 114.52 148.19 114.52 148.36 145.35"/><path class="cls-3" d="M89.1,99.28v-43a25.68,25.68,0,0,1,51.35,0v43Z"/><path class="cls-4" d="M206.74,56.27V99.83a5,5,0,0,1-5,5H84.14V56.27a30.73,30.73,0,0,1,30.63-30.64h61.66a30.72,30.72,0,0,1,30.31,30.63Z"/><path class="cls-5" d="M206.74,73.76V99.83a5,5,0,0,1-5,5H145.41V56.27c0-2.3,4.34-5.44,8.69-6.28,9.41-1.1,14.92,2.09,19.85,5.94,6.79,5.31,4.82,8.5,8.49,11.52C190.56,74.13,194.22,64.26,206.74,73.76Z"/><path class="cls-2" d="M114.78,25.64h0a30.63,30.63,0,0,1,30.63,30.63v43a0,0,0,0,1,0,0H84.14a0,0,0,0,1,0,0v-43A30.63,30.63,0,0,1,114.78,25.64Z"/><path class="cls-3" d="M176.42,25.64Z"/><rect class="cls-2" x="127.16" y="104.88" width="28.13" height="9.6"/><polygon class="cls-6" points="148.29 145.37 134.15 147.22 134.15 114.52 148.29 114.52 148.29 145.37"/><path class="cls-6" d="M114.78,25.64h0a30.63,30.63,0,0,1,30.63,30.63v43a0,0,0,0,1,0,0H84.14a0,0,0,0,1,0,0v-43A30.63,30.63,0,0,1,114.78,25.64Z"/><path class="cls-6" d="M145.41,56.27v43H84.14v-43a30.64,30.64,0,0,1,61.27,0Z"/><path class="cls-7" d="M89.1,99.28v-43a25.68,25.68,0,0,1,51.35,0v43Z"/><path class="cls-6" d="M89.1,99.28v-43a25.68,25.68,0,0,1,51.35,0v43Z"/><path class="cls-6" d="M206.74,56.27V99.82a5,5,0,0,1-5,5H84.14V56.27a30.72,30.72,0,0,1,30.63-30.63h61.65a30.72,30.72,0,0,1,30.32,30.63Z"/><path class="cls-6" d="M176.42,25.64Z"/><rect class="cls-6" x="127.16" y="104.88" width="28.13" height="9.6"/><rect class="cls-2" x="53.26" y="99.28" width="92.15" height="5.5"/><rect class="cls-6" x="53.26" y="99.28" width="92.15" height="5.5"/><path class="cls-8" d="M0,39.12S28.44,69.16,59.7,69C59.7,69,27.85,76.74,0,39.12Z"/><path class="cls-8" d="M3.61,64.25s33.19,19.37,61,11.07C64.62,75.32,38.25,90.54,3.61,64.25Z"/><rect class="cls-9" x="53.26" y="50.73" width="71.46" height="48.49" rx="4.45"/><rect class="cls-6" x="53.26" y="50.73" width="71.46" height="48.49" rx="4.45"/><path class="cls-9" d="M88.69,75,55,51.72a4.57,4.57,0,0,0-1.76,3.6V94.63a4.54,4.54,0,0,0,1.4,3.28Z"/><path class="cls-6" d="M88.69,75,55,51.72a4.57,4.57,0,0,0-1.76,3.6V94.63a4.54,4.54,0,0,0,1.4,3.28Z"/><path class="cls-6" d="M88.69,75,123,51.72a4.59,4.59,0,0,1,1.75,3.6V94.63a4.54,4.54,0,0,1-1.4,3.28Z"/><path class="cls-9" d="M88.94,80.59h0a12.46,12.46,0,0,1-5.39-1.21A12.86,12.86,0,0,1,81,77.73L53.27,55.33a4.6,4.6,0,0,1,4.6-4.6h62.24a4.6,4.6,0,0,1,4.6,4.6L96.84,77.74a12,12,0,0,1-7.9,2.85Z"/><path class="cls-6" d="M88.94,80.59h0a12.46,12.46,0,0,1-5.39-1.21A12.86,12.86,0,0,1,81,77.73L53.27,55.33a4.6,4.6,0,0,1,4.6-4.6h62.24a4.6,4.6,0,0,1,4.6,4.6L96.84,77.74a12,12,0,0,1-7.9,2.85Z"/><path class="cls-2" d="M53.51,55.84,81,78.06a12.69,12.69,0,0,0,15.85,0l27.61-22.2-27,24.56a12.68,12.68,0,0,1-17,0Z"/><circle class="cls-2" cx="88.99" cy="80.62" r="9.87"/><circle class="cls-10" cx="88.99" cy="78.64" r="9.87"/><circle class="cls-10" cx="88.99" cy="78.64" r="9.87"/><circle class="cls-6" cx="88.99" cy="78.64" r="9.87"/><path class="cls-9" d="M94.59,74.56a.89.89,0,0,0-1.25,0L87.1,80.8,85,78.49a.88.88,0,0,0-1.25-.06.93.93,0,0,0-.29.61.89.89,0,0,0,.23.64l2.72,3a.93.93,0,0,0,.64.29h0a.92.92,0,0,0,.63-.26l6.9-6.9A.89.89,0,0,0,94.59,74.56Z"/></svg>