<svg id="Design" xmlns="http://www.w3.org/2000/svg" viewBox="0 0 68.67 51.9"><defs><style>.cls-1,.cls-3,.cls-8{fill:#fff;}.cls-1,.cls-4{fill-rule:evenodd;}.cls-2{fill:#87bee2;}.cls-3{opacity:0.3;isolation:isolate;}.cls-4{fill:#4198d3;opacity:0.3;}.cls-5{fill:none;}.cls-10,.cls-5,.cls-8{stroke:#133f5d;stroke-linecap:round;stroke-width:0.5px;}.cls-5,.cls-8{stroke-linejoin:round;}.cls-6{fill:#cfe3ae;}.cls-7{fill:#e9cfb7;}.cls-9{fill:#ecd8c4;}.cls-10{fill:#3a5162;stroke-miterlimit:10;}.cls-11{fill:#617481;}</style></defs><title>Company Email dan User Email 3.0</title><path class="cls-1" d="M14,1.31C20.37-1.35,29.91.43,33.73,3.1c4.39,3.06,8.75,6.26,11.91,7.17,6.19,1.79,12.85-2.46,20.08,6C72,23.68,67.61,37.36,58.18,43c-7.41,4.44-13.71,7.61-31.51,4.85C11.2,45.47-6.93,27,2.69,10.42,5.43,5.7,7.78,3.92,14,1.31Z"/><path class="cls-2" d="M53.73,51.65H14.94l.39-5.26.61-8.31a6.21,6.21,0,0,1,3.28-4.68l7.61-2.71.51-.18,6.58,2.41,6.57-2.41,9,3.13a5.48,5.48,0,0,1,3,3.94L52.61,39Z"/><path class="cls-3" d="M27.05,31.53s-7.85,2.53-8.42,6.85c-.51,3.94-.51,6.91-.78,13.2H15.1l.39-5.25L16.1,38a6.21,6.21,0,0,1,3.27-4.67l7.46-2.65Z"/><path class="cls-4" d="M53.73,51.65H14.94l.39-5.26c5.23-3.62,9.58-.79,13.94-1.67C31.79,44.21,35.39,42,39,39.9c2.76-1.61,8.92-2.41,13.62-.9Z"/><path class="cls-5" d="M27.34,30.51,19.21,33.4a6.21,6.21,0,0,0-3.27,4.67l-1,13.58H53.73L52.48,37.58a5.48,5.48,0,0,0-3-3.94l-9-3.13-6.57,2.41Z"/><polygon class="cls-6" points="32.01 34.63 32.95 36.65 34.88 36.65 35.7 34.63 33.92 32.92 32.01 34.63"/><polygon class="cls-6" points="34.88 36.65 37.24 51.65 31.16 51.65 32.95 36.65 34.88 36.65"/><rect class="cls-7" x="29.18" y="25.43" width="9.3" height="7.43"/><polygon class="cls-8" points="29.24 27.74 33.92 32.83 28.46 37.98 26.82 30.68 29.24 27.74"/><polygon class="cls-8" points="38.47 27.74 33.92 32.83 39.24 37.98 40.89 30.68 38.47 27.74"/><polygon class="cls-5" points="32.01 34.63 32.95 36.65 34.88 36.65 35.7 34.63 33.92 32.92 32.01 34.63"/><polygon class="cls-5" points="34.88 36.65 37.24 51.65 31.16 51.65 32.95 36.65 34.88 36.65"/><path class="cls-7" d="M41.5,22.44s-1,6.41-7.23,7.14a8.43,8.43,0,0,1-5.06-1.89,8.85,8.85,0,0,1-2.91-5.25s-1.65-.25-2-2.94.14-3.42,1.31-3.15l-.27-4-.09-1.53H42.44L42,16s1.42-.07,1.42,1.67S43.52,22,41.5,22.44Z"/><path class="cls-9" d="M29.21,27.69a8.85,8.85,0,0,1-2.91-5.25s-1.65-.25-2-2.94.14-3.42,1.31-3.15l-.27-4-.09-1.53h1.95C26.67,14.47,26,22.46,29.21,27.69Z"/><path class="cls-5" d="M26.3,22.44s-1.65-.26-2-2.93.14-3.44,1.31-3.16l-.37-5.56H42.44L42,16s1.42-.06,1.42,1.68.13,4.3-1.88,4.76c0,0-1,6.4-7.23,7.14C34.27,29.58,27.77,29.71,26.3,22.44Z"/><path class="cls-10" d="M42,15.89c-.34-4.12-3.08-4-3.08-4s-9.06-.05-11,0-2.24,4.53-2.24,4.53-.6-4.39-.55-5.77a2.85,2.85,0,0,1,1.6-2.6,2.26,2.26,0,0,0,.62-.39,7.36,7.36,0,0,0,1-1c1.19-2.06,5.85-1.74,5.85-1.74,6.21.22,7.66,2.47,8.3,4.48S42,15.89,42,15.89Z"/><path class="cls-11" d="M28.35,11.89c-2.61-.24-2.73,4.55-2.73,4.55s-.6-4.39-.55-5.77a2.85,2.85,0,0,1,1.6-2.6,10.33,10.33,0,0,0,1.19-.92C25.77,9.66,28.35,11.89,28.35,11.89Z"/><path class="cls-5" d="M42,15.89c-.34-4.12-3.08-4-3.08-4s-9.06-.05-11,0-2.24,4.53-2.24,4.53-.6-4.39-.55-5.77a2.85,2.85,0,0,1,1.6-2.6,2.26,2.26,0,0,0,.62-.39,7.36,7.36,0,0,0,1-1c1.19-2.06,5.85-1.74,5.85-1.74,6.21.22,7.66,2.47,8.3,4.48S42,15.89,42,15.89Z"/></svg>