<svg id="Layer_1" data-name="Layer 1" xmlns="http://www.w3.org/2000/svg" xmlns:xlink="http://www.w3.org/1999/xlink" viewBox="0 0 18 18"><defs><style>.cls-1{fill:none;}.cls-2{clip-path:url(#clip-path);}.cls-3{opacity:0.8;}.cls-4{clip-path:url(#clip-path-2);}.cls-5{clip-path:url(#clip-path-3);}.cls-6{opacity:0.7;}.cls-6,.cls-8,.cls-9{isolation:isolate;}.cls-7{clip-path:url(#clip-path-4);}.cls-8{opacity:0.15;}.cls-9{opacity:0.1;}.cls-10{fill:#e35273;}.cls-11,.cls-12{fill:#fff;}.cls-11{fill-rule:evenodd;opacity:0.2;}</style><clipPath id="clip-path"><rect class="cls-1" x="-848.88" y="-585.93" width="728.23" height="485.57"/></clipPath><clipPath id="clip-path-2"><polygon class="cls-1" points="-632.67 -513.83 -222.72 -513.43 -222.72 -417.99 -632.4 -417.99 -632.67 -513.83"/></clipPath><clipPath id="clip-path-3"><path class="cls-1" d="M-232-602.79H-623.82c-4.82,0-8.71,2.6-8.71,5.83l-.14,179.36s4-.06,8.85-.06H-232c4.82,0,9.32-.33,9.32-.33l-.61-179C-223.33-600.19-227.22-602.79-232-602.79Z"/></clipPath><clipPath id="clip-path-4"><rect class="cls-1" x="-999.72" y="-600.51" width="1149.55" height="646.17"/></clipPath></defs><title>Review UIUX [11 September 2019]</title><path class="cls-10" d="M18,9a8.89,8.89,0,0,1-2,5.68,8.42,8.42,0,0,1-.64.7A9,9,0,0,1,0,9,7.84,7.84,0,0,1,.1,7.72,9,9,0,0,1,18,9Z"/><path class="cls-11" d="M16,14.69a8.42,8.42,0,0,1-.64.7A9,9,0,0,1,0,9,7.84,7.84,0,0,1,.1,7.72s0,0,0,0c1.65-.81,3.57-1.47,6,0,1.22.76,1.51,2.57,3.42,3.2,1.63.54,3.9-.28,5.73,2.06A3.43,3.43,0,0,1,16,14.69Z"/><path class="cls-12" d="M10,6.17,9.7,10.06s0,.88-.7.81H9c-.7.07-.71-.81-.71-.81L8,6.17A5,5,0,0,1,8.19,4.4,1,1,0,0,1,9,4H9a1,1,0,0,1,.81.45A5.28,5.28,0,0,1,10,6.17Z"/><circle class="cls-12" cx="9" cy="13.04" r="1"/></svg>