<svg id="Design" xmlns="http://www.w3.org/2000/svg" viewBox="0 0 14.66 12.64"><defs><style>.cls-1{fill:#eab11c;}.cls-2,.cls-3{fill:#fff;}.cls-2{fill-rule:evenodd;opacity:0.2;}</style></defs><title>Company Email dan User Email 3.0</title><path class="cls-1" d="M13.4,12.64H1.27A1.26,1.26,0,0,1,.18,10.73L2.75,6.46,6.25.61a1.27,1.27,0,0,1,2.17,0l6.06,10.12A1.26,1.26,0,0,1,13.4,12.64Z"/><path class="cls-2" d="M12.4,12.64H1.27A1.26,1.26,0,0,1,.18,10.73L2.75,6.46a5,5,0,0,1,1.39.6C5.16,7.7,5.41,9.23,7,9.75c1.38.47,3.29-.23,4.83,1.74A2.92,2.92,0,0,1,12.4,12.64Z"/><path class="cls-3" d="M8.07,4.83,7.86,7.74s0,.66-.53.61h0c-.52.05-.53-.61-.53-.61L6.59,4.83a3.71,3.71,0,0,1,.14-1.32.73.73,0,0,1,.6-.34h0a.75.75,0,0,1,.61.34A3.89,3.89,0,0,1,8.07,4.83Z"/><circle class="cls-3" cx="7.33" cy="9.98" r="0.75"/></svg>