<svg id="Layer_1" data-name="Layer 1" xmlns="http://www.w3.org/2000/svg" viewBox="0 0 54.28 45.23"><defs><style>.cls-1{fill:#4196d2;opacity:0.1;}.cls-1,.cls-11,.cls-13,.cls-4,.cls-7,.cls-9{fill-rule:evenodd;}.cls-2{fill:#414042;}.cls-2,.cls-9{opacity:0.15;}.cls-3{fill:#87bee2;}.cls-4{fill:#4198d3;opacity:0.3;}.cls-14,.cls-15,.cls-5{fill:none;}.cls-5,.cls-8{stroke:#14385e;}.cls-14,.cls-15,.cls-5,.cls-8{stroke-width:0.5px;}.cls-11,.cls-13,.cls-6{fill:#fff;}.cls-16,.cls-7{fill:#d6e9f4;opacity:0.5;}.cls-8{fill:#acd480;stroke-miterlimit:10;}.cls-9{fill:#3e96d2;}.cls-10{fill:#a6cde8;}.cls-11{opacity:0.3;isolation:isolate;}.cls-12{fill:#83b74a;}.cls-13{opacity:0.2;}.cls-14{stroke:#fff;}.cls-14,.cls-15{stroke-linecap:round;stroke-linejoin:round;}.cls-15{stroke:#0e3f5d;}</style></defs><title>Save and Confirm Pop Up</title><path class="cls-1" d="M7.61,10.32C12,7.09,19.61,6.66,23,8,27,9.5,30.92,11.12,33.51,11.23c5.07.2,9.37-4.31,16.5.81,6.23,4.48,5.05,13.33.24,20.54-3.56,5.35-9.85,10.74-24.19,11C13.72,43.79-3.59,33.91.65,19.42,1.87,15.29,3.33,13.49,7.61,10.32Z"/><ellipse class="cls-2" cx="32.94" cy="43.11" rx="15.88" ry="2.12"/><path class="cls-3" d="M16.79,13.53a2.38,2.38,0,0,1,2,.34,3.37,3.37,0,0,1,1.49,3,4.28,4.28,0,0,1,0,.51s0,.29,0,.8H14.91C14.91,14.77,16,13.79,16.79,13.53Z"/><path class="cls-4" d="M17.5,13.44s-2,.5-1.51,4.75l-1.15,0S14.82,13.29,17.5,13.44Z"/><path class="cls-5" d="M16.79,13.53a2.38,2.38,0,0,1,2,.34,3.37,3.37,0,0,1,1.49,3,4.28,4.28,0,0,1,0,.51s0,.29,0,.8H14.91C14.91,14.77,16,13.79,16.79,13.53Z"/><path class="cls-6" d="M41.93,32.15c0,1.14,0,2.21-.06,3.16,0,2.38-.1,4-.1,4H25.35s.43,4-2.65,3.63c0,0-2.73.08-2.57-3.72.06-1.34.08-4.39.08-7.83,0-2.07,0-4.29,0-6.35,0-4.25-.11-7.82-.19-8.15a3.31,3.31,0,0,0-2.68-3.43s0,0-.14,0H37.77s3.5,0,4,4.16C42.06,20,42,26.79,41.93,32.15Z"/><path class="cls-7" d="M41.93,33.36c0,1.14,0,1-.06,2,0,2.38-.1,4-.1,4H25.35s.43,4-2.65,3.63c0,0-2.73.08-2.57-3.72.06-1.34.08-4.39.08-7.83,0-2.07,0-1.87,0-3.93,3.14.05,6.25.53,7.85,1.65a28.22,28.22,0,0,0,7.88,3.93C37.84,33.61,39.85,33.27,41.93,33.36Z"/><path class="cls-8" d="M22.54,43h.65A2.35,2.35,0,0,1,22.54,43Z"/><path class="cls-5" d="M41.77,39.31H25.35s.43,4-2.65,3.64c0,0-2.74.09-2.57-3.72s0-21.58-.15-22.33a3.32,3.32,0,0,0-2.68-3.43s0,0-.14,0H37.77s3.5,0,4,4.16S41.77,39.31,41.77,39.31Z"/><path class="cls-9" d="M20.14,40a5.65,5.65,0,0,1,0-.72s0-.08,0-.12v.12A4.32,4.32,0,0,0,20.14,40Z"/><path class="cls-9" d="M21.11,42.3a2.55,2.55,0,0,0,1,.55,2.44,2.44,0,0,1-1.43-1.1,3,3,0,0,0,.45.53Z"/><rect class="cls-10" x="23.58" y="25.57" width="14.89" height="0.59"/><rect class="cls-10" x="23.58" y="25.58" width="0.59" height="9.03"/><rect class="cls-10" x="37.88" y="25.58" width="0.59" height="9.03"/><rect class="cls-10" x="33.11" y="25.58" width="0.59" height="9.03"/><rect class="cls-10" x="28.35" y="25.58" width="0.59" height="9.03"/><rect class="cls-10" x="23.58" y="29.78" width="14.89" height="0.59"/><rect class="cls-10" x="24.92" y="27.56" width="2.7" height="0.59"/><rect class="cls-10" x="23.58" y="34.02" width="14.89" height="0.59"/><rect class="cls-10" x="29.67" y="27.56" width="2.7" height="0.59"/><rect class="cls-10" x="34.44" y="27.56" width="2.7" height="0.59"/><rect class="cls-10" x="34.44" y="31.9" width="2.7" height="0.59"/><rect class="cls-10" x="29.67" y="31.9" width="2.7" height="0.59"/><rect class="cls-10" x="24.92" y="31.9" width="2.7" height="0.59"/><rect class="cls-10" x="28.54" y="18.19" width="3.9" height="0.59"/><rect class="cls-10" x="28.54" y="20.18" width="5.43" height="0.59"/><path class="cls-3" d="M44.28,43c-.89.18-17.59,0-21.09,0,2.37-.23,2-3.64,2-3.64H45.65S46.05,42.61,44.28,43Z"/><path class="cls-11" d="M45.71,39.3c.22,4-1.66,3.69-1.66,3.69.83-.58.88-2,.82-2.87H25.19a3.84,3.84,0,0,0,0-.81H45.71Z"/><path class="cls-5" d="M44.28,43c-.89.18-17.59,0-21.09,0,2.37-.23,2-3.64,2-3.64H45.65S46.05,42.61,44.28,43Z"/><circle class="cls-10" cx="25.62" cy="19.48" r="2.03"/><path class="cls-12" d="M45.35,16.45A4.64,4.64,0,0,1,45,18.16a4.76,4.76,0,1,1,.32-1.71Z"/><path class="cls-13" d="M45,18.16A4.77,4.77,0,0,1,36.1,14.8a3.41,3.41,0,0,1,3.24.27c.8.49,1,1.68,2.24,2.09C42.56,17.48,43.9,17.05,45,18.16Z"/><circle class="cls-5" cx="40.58" cy="16.45" r="4.77"/><polyline class="cls-14" points="38.48 16.84 39.63 17.98 42.67 14.92"/><path class="cls-3" d="M26.41,4.26S13.89,1.37,9.93,13.46C9.93,13.46,14.37,4.83,26.41,4.26Z"/><path id="path6481" class="cls-6" d="M30,5.25l2.66,2.14,7.31-4Z"/><path id="path6481-2" data-name="path6481" class="cls-15" d="M30,5.25l2.66,2.14,7.31-4Z"/><path id="path6483" class="cls-6" d="M26.85,7.4l2.07-3.21L25.15.25l15,3.08Z"/><path id="path6485" class="cls-16" d="M27,7.29l2-3.11,10.91-.85-1.45.51-9,.78L27.94,7Z"/><path id="path6487" class="cls-16" d="M39.91,3.33l-14.6-3,.93,1L38.55,3.44Z"/><path id="path6483-2" data-name="path6483" class="cls-15" d="M26.85,7.4l2.07-3.21L25.15.25l15,3.08Z"/></svg>