<?xml version="1.0" encoding="utf-8"?>
<!-- Generator: Adobe Illustrator 23.0.0, SVG Export Plug-In . SVG Version: 6.00 Build 0)  -->
<svg version="1.1" baseProfile="basic" id="Layer_1"
	 xmlns="http://www.w3.org/2000/svg" xmlns:xlink="http://www.w3.org/1999/xlink" x="0px" y="0px" viewBox="0 0 182.9 140"
	 xml:space="preserve">
<g>
	<g>
		<g>
			<g>
				<path opacity="0.1" fill-rule="evenodd" clip-rule="evenodd" fill="#4296D2" d="M18,41.1C30,29.4,53.2,25,64.2,27.6
					c12.6,3,25.3,6.3,33.3,5.6c15.5-1.5,26.8-17,50.7-4.3C169,40,176,80.2,150.4,106.6c-14.6,15-28.1,24.6-62.4,28.3
					c-37.8,4-94.4-17.3-87.4-63.2C2.6,58.6,6.3,52.5,18,41.1z"/>
			</g>
			<g>
				<path fill="#EDD9C5" d="M108.7,29.8l-11.1,9.3l-8.3-10l11.1-9.3c2.7-2.3,6.7-1.9,9,0.8l0.1,0.2
					C111.8,23.5,111.4,27.6,108.7,29.8z"/>
				<path fill="none" stroke="#13405E" stroke-width="0.5" stroke-linecap="round" stroke-linejoin="round" d="M108.7,29.8
					l-11.1,9.3l-8.3-10l11.1-9.3c2.7-2.3,6.7-1.9,9,0.8l0.1,0.2C111.8,23.5,111.4,27.6,108.7,29.8z"/>
				<polygon fill="#EDD9C5" points="51.1,73.1 34.2,93.1 55.8,112.3 75,90 				"/>
				<polygon fill="none" stroke="#13405E" stroke-width="0.5" stroke-linecap="round" stroke-linejoin="round" points="51.1,73.1 
					34.2,93.1 55.8,112.3 75,90 				"/>
				<path fill="#EDD9C5" d="M42.4,86.9c-6.9-10.3-5-24.3,4.8-31.9l22.3-17.7c11.8-9.4,44.8,32.3,33,41.6L80.2,96.6
					c-5.2,4.2-11.7,5.7-17.9,4.8"/>
				<path fill="none" stroke="#13405E" stroke-width="0.5" stroke-linecap="round" stroke-linejoin="round" d="M42.4,86.9
					c-6.9-10.3-5-24.3,4.8-31.9l22.3-17.7c11.8-9.4,44.8,32.3,33,41.6L80.2,96.6c-5.2,4.2-11.7,5.7-17.9,4.8"/>
				<g>
					<g>
						<path fill="#F4FBFE" d="M116.7,101.2l-42.5,12c-2.7,0.8-5.5-0.8-6.2-3.5L43.3,22.5c-0.8-2.7,0.8-5.5,3.5-6.2l42.5-12
							C92,3.5,94.8,5,95.6,7.7L120.2,95C121,97.7,119.4,100.5,116.7,101.2z"/>
						<path fill="none" stroke="#13405E" stroke-width="0.5" stroke-linecap="round" stroke-linejoin="round" d="M116.7,101.2
							l-42.5,12c-2.7,0.8-5.5-0.8-6.2-3.5L43.3,22.5c-0.8-2.7,0.8-5.5,3.5-6.2l42.5-12C92,3.5,94.8,5,95.6,7.7L120.2,95
							C121,97.7,119.4,100.5,116.7,101.2z"/>
						<path fill="none" stroke="#13405E" stroke-width="0.5" stroke-linecap="round" stroke-linejoin="round" d="M116.7,101.2
							l-42.5,12c-2.7,0.8-5.5-0.8-6.2-3.5L43.3,22.5c-0.8-2.7,0.8-5.5,3.5-6.2l42.5-12C92,3.5,94.8,5,95.6,7.7L120.2,95
							C121,97.7,119.4,100.5,116.7,101.2z"/>
						<path fill="#FFFFFF" d="M116.7,101.2l-42.5,12c-2.7,0.8-5.5-0.8-6.3-3.5L43.3,22.5c-0.8-2.7,0.8-5.5,3.5-6.3l42.5-12
							C92,3.5,94.8,5,95.6,7.7L120.2,95C121,97.7,119.4,100.5,116.7,101.2z"/>
						<circle fill="#13405E" cx="89.5" cy="11.1" r="1.6"/>
						<path fill="none" stroke="#13405E" stroke-width="0.5" stroke-linecap="round" stroke-linejoin="round" d="M116.7,101.2
							l-42.5,12c-2.7,0.8-5.5-0.8-6.2-3.5L43.3,22.5c-0.8-2.7,0.8-5.5,3.5-6.2l42.5-12C92,3.5,94.8,5,95.6,7.7L120.2,95
							C121,97.7,119.4,100.5,116.7,101.2z"/>
					</g>
				</g>
				<path fill="#A5CD5C" d="M97.6,52.4l-3.9-2l-0.5-4.4c-0.1-0.8-0.8-1.3-1.5-1.2l-3.3,0.4l-1.7-2.8c-0.4-0.7-1.3-0.9-1.9-0.4
					l-3.6,2.2l-3.8-1.9c-0.7-0.3-1.5-0.1-1.9,0.6l-2,3.9l-4.4,0.5c-0.8,0.1-1.3,0.8-1.2,1.5l0.4,3.3l-2.8,1.7
					c-0.7,0.4-0.9,1.3-0.4,1.9l2.2,3.6l-1.9,3.8c-0.3,0.7-0.1,1.5,0.6,1.9l3.9,2l0.5,4.4c0.1,0.8,0.8,1.3,1.5,1.2l3.3-0.4l1.7,2.8
					c0.4,0.7,1.3,0.9,1.9,0.4l3.6-2.2l3.8,1.9c0.7,0.3,1.5,0.1,1.9-0.6l2-3.9l4.4-0.5c0.8-0.1,1.3-0.8,1.2-1.5l-0.4-3.3l2.8-1.7
					c0.7-0.4,0.9-1.3,0.4-1.9l-2.2-3.6l1.9-3.8C98.6,53.6,98.3,52.8,97.6,52.4z"/>
				<polyline fill="none" stroke="#FFFFFF" stroke-width="3" stroke-linecap="round" stroke-linejoin="round" points="74.9,61.4 
					80.1,64.7 87.4,51.7 				"/>
				<path fill="#EDD9C5" d="M45.2,90c0,0-13-10.4-3.5-31c3-6.6-0.6-25.1-0.6-25.1c-1.6-5.7,9.3-8.8,10.9-3.1c0,0,0.9,3.2,5.4,19.1
					c4.5,16,7.1,23.5,2.5,30.9"/>
				<g>
					<polygon fill="#AED3EA" points="41.5,34.7 41.5,34.7 41.5,34.7 					"/>
					<path fill="#EAD0B9" d="M43.1,79c-2-4.7-1.4-9.3-0.7-11.5C44,62.3,44,55,43,46.9c0.3,4.6,0.1,9.1-1.1,11.8
						c-6.1,14.2-3.2,21.5,0.2,27.4c0.6,1,3.3,3.9,3.2,3.7l0,0l1.1-1.5C47.1,84.5,45.2,83.9,43.1,79z"/>
				</g>
				<path fill="#EDD9C5" d="M109.3,44.5l-3.5,2.9c-2.5,2.1-6.2,1.7-8.2-0.7l0,0c-2.1-2.5-1.7-6.2,0.7-8.2l3.5-2.9
					c2.5-2.1,6.2-1.7,8.2,0.7l0,0C112.2,38.7,111.8,42.4,109.3,44.5z"/>
				<path opacity="0.5" fill="#FFFFFF" d="M108.2,42.5l-4,3.4c-0.9-2.1-2.4-3.9-4.6-5.5l4-3.4C106,37.9,107.4,39.9,108.2,42.5z"/>
				<path fill="#EDD9C5" d="M113.2,57.2l-3.8,2.4c-2.7,1.7-6.3,0.9-8.1-1.8l0,0c-1.7-2.7-0.9-6.3,1.8-8.1l3.8-2.4
					c2.7-1.7,6.3-0.9,8.1,1.8l0,0C116.7,51.9,115.9,55.5,113.2,57.2z"/>
				<path opacity="0.5" fill="#FFFFFF" d="M112.3,54.9l-4.4,3c-0.7-2.1-2-4.1-4-6l4.4-3C110.5,50.1,111.8,52.2,112.3,54.9z"/>
				<path fill="#EDD9C5" d="M113.8,70.6L113.8,70.6c-2.7,1.7-6.3,0.9-8.1-1.8l0,0c-1.7-2.7-0.9-6.3,1.8-8.1l0,0
					c2.7-1.7,6.3-0.9,8.1,1.8l0,0C117.4,65.2,116.5,68.9,113.8,70.6z"/>
				<path fill="none" stroke="#13405E" stroke-width="0.5" stroke-linecap="round" stroke-linejoin="round" d="M109.3,44.5l-3.5,2.9
					c-2.5,2.1-6.2,1.7-8.2-0.7l0,0c-2.1-2.5-1.7-6.2,0.7-8.2l3.5-2.9c2.5-2.1,6.2-1.7,8.2,0.7l0,0C112.2,38.7,111.8,42.4,109.3,44.5
					z"/>
				<path fill="none" stroke="#13405E" stroke-width="0.5" stroke-linecap="round" stroke-linejoin="round" d="M113.2,57.2l-3.8,2.4
					c-2.7,1.7-6.3,0.9-8.1-1.8l0,0c-1.7-2.7-0.9-6.3,1.8-8.1l3.8-2.4c2.7-1.7,6.3-0.9,8.1,1.8l0,0C116.7,51.9,115.9,55.5,113.2,57.2
					z"/>
				<path fill="none" stroke="#13405E" stroke-width="0.5" stroke-linecap="round" stroke-linejoin="round" d="M113.8,70.6
					L113.8,70.6c-2.7,1.7-6.3,0.9-8.1-1.8l0,0c-1.7-2.7-0.9-6.3,1.8-8.1l0,0c2.7-1.7,6.3-0.9,8.1,1.8l0,0
					C117.4,65.2,116.5,68.9,113.8,70.6z"/>
				<path opacity="0.5" fill="#FFFFFF" d="M115,66.9l-2.4,1.6c-0.2-2.1-1.4-3.9-3.8-5.6l2.4-1.6C113.6,62.1,114.9,64,115,66.9z"/>
				<path fill="#F4FBFE" d="M54.9,117.7l-27-20c-1.4-1.1-1.7-3.1-0.7-4.5l4.3-5.8c1.1-1.4,3.1-1.7,4.5-0.7l27,20
					c1.4,1.1,1.7,3.1,0.7,4.5l-4.3,5.8C58.4,118.5,56.4,118.8,54.9,117.7z"/>
				<path fill="none" stroke="#13405E" stroke-width="0.5" stroke-linecap="round" stroke-linejoin="round" d="M54.9,117.7l-27-20
					c-1.4-1.1-1.7-3.1-0.7-4.5l4.3-5.8c1.1-1.4,3.1-1.7,4.5-0.7l27,20c1.4,1.1,1.7,3.1,0.7,4.5l-4.3,5.8
					C58.4,118.5,56.4,118.8,54.9,117.7z"/>
				<path fill="#89BEE2" d="M46.6,138.7c-5,6.7-40.9-19.9-35.9-26.6l14.6-20.6l35.9,26.6L46.6,138.7z"/>
				<path fill="none" stroke="#13405E" stroke-width="0.5" stroke-linecap="round" stroke-linejoin="round" d="M46.6,138.7
					c-5,6.7-40.9-19.9-35.9-26.6l14.6-20.6l35.9,26.6L46.6,138.7z"/>
				<path fill="none" stroke="#13405E" stroke-width="0.5" stroke-linecap="round" stroke-linejoin="round" d="M45.2,90
					c0,0-13-10.4-3.5-31c3-6.6-0.6-25.1-0.6-25.1c-1.6-5.7,9.3-8.8,10.9-3.1c0,0,0.9,3.2,5.4,19.1c4.5,16,7.1,23.5,2.5,30.9"/>
			</g>
		</g>
	</g>
	<g>
		<path fill="#A5CD5C" d="M142,38.1c-2.4,1.8-13.1,2.9-13.1,2.9s4-9.9,6.4-11.7c2.4-1.8,5.9-1.3,7.7,1.1S144.5,36.2,142,38.1z"/>
		<g>
			<path fill="#89BEE2" d="M145.9,35.3l-6.8-9.1c11.4-22.8,33.1-25.7,41.1-26c1.6-0.1,2.7,1.5,2.2,2.9C180,10.8,171,30.8,145.9,35.3
				z"/>
			<path fill="#DBEABE" d="M176.7,15.1l-9.4-12.6c5.4-1.6,10.1-2.1,13-2.2c1.6-0.1,2.7,1.5,2.2,3C181.6,6,179.8,10.4,176.7,15.1z"/>
			<path fill="none" stroke="#13405E" stroke-width="0.5" stroke-linecap="round" stroke-linejoin="round" d="M145.9,35.3l-6.8-9.1
				c11.4-22.8,33.1-25.7,41.1-26c1.6-0.1,2.7,1.5,2.2,2.9C180,10.8,171,30.8,145.9,35.3z"/>
			<circle fill="#FFFFFF" cx="164.1" cy="14.7" r="4.2"/>
			<path fill="#DBEABE" d="M135.5,36.2l-0.1-0.2c-0.4-0.6-0.3-1.4,0.3-1.8l10.7-8c0.6-0.4,1.4-0.3,1.8,0.3l0.1,0.2
				c0.4,0.6,0.3,1.4-0.3,1.8l-10.7,8C136.7,36.9,135.9,36.8,135.5,36.2z"/>
			<path fill="#DBEABE" d="M145.9,35.3c5.1,6.8-2.2,12.2-2.2,12.2c12-5.4,9.8-13.7,9.5-14.1C151,34.2,148.5,34.8,145.9,35.3z"/>
			<path fill="#DBEABE" d="M143,19.8c-0.3-0.4-7.6-4.9-16.2,5.1c0,0,7.3-5.4,12.3,1.4C140.3,23.9,141.6,21.7,143,19.8z"/>
			<path fill="none" stroke="#13405E" stroke-width="0.5" stroke-linecap="round" stroke-linejoin="round" d="M135.5,36.2l-0.1-0.2
				c-0.4-0.6-0.3-1.4,0.3-1.8l10.7-8c0.6-0.4,1.4-0.3,1.8,0.3l0.1,0.2c0.4,0.6,0.3,1.4-0.3,1.8l-10.7,8
				C136.7,36.9,135.9,36.8,135.5,36.2z"/>
			<path fill="none" stroke="#13405E" stroke-width="0.5" stroke-linecap="round" stroke-linejoin="round" d="M145.9,35.3
				c5.1,6.8-2.2,12.2-2.2,12.2c12-5.4,9.8-13.7,9.5-14.1C151,34.2,148.5,34.8,145.9,35.3z"/>
			<path fill="none" stroke="#13405E" stroke-width="0.5" stroke-linecap="round" stroke-linejoin="round" d="M143,19.8
				c-0.3-0.4-7.6-4.9-16.2,5.1c0,0,7.3-5.4,12.3,1.4C140.3,23.9,141.6,21.7,143,19.8z"/>
		</g>
	</g>
</g>
</svg>
