<?xml version="1.0" encoding="utf-8"?>
<!-- Generator: Adobe Illustrator 23.0.0, SVG Export Plug-In . SVG Version: 6.00 Build 0)  -->
<svg version="1.1" baseProfile="basic" id="Layer_1"
	 xmlns="http://www.w3.org/2000/svg" xmlns:xlink="http://www.w3.org/1999/xlink" x="0px" y="0px" viewBox="0 0 171.6 136.2"
	 xml:space="preserve">
<g>
	<g>
		<g>
			<path opacity="0.1" fill-rule="evenodd" clip-rule="evenodd" fill="#4296D2" d="M18,37.3c12-11.7,35.1-16.1,46.1-13.5
				c12.6,3,25.3,6.3,33.3,5.6c15.5-1.5,26.8-17,50.7-4.3c20.9,11.1,27.9,51.4,2.3,77.8c-14.6,15-28.1,24.6-62.4,28.3
				c-37.8,4-94.4-17.3-87.4-63.2C2.6,54.8,6.3,48.7,18,37.3z"/>
		</g>
		<g>
			<path fill="#EDD9C5" d="M108.7,26.1l-11.1,9.3l-8.3-10l11.1-9.3c2.7-2.3,6.7-1.9,9,0.8l0.1,0.2C111.8,19.8,111.4,23.8,108.7,26.1
				z"/>
			<path fill="none" stroke="#13405E" stroke-width="0.5" stroke-linecap="round" stroke-linejoin="round" d="M108.7,26.1l-11.1,9.3
				l-8.3-10l11.1-9.3c2.7-2.3,6.7-1.9,9,0.8l0.1,0.2C111.8,19.8,111.4,23.8,108.7,26.1z"/>
			<polygon fill="#EDD9C5" points="51.1,69.3 34.2,89.3 55.8,108.5 75,86.2 			"/>
			<polygon fill="none" stroke="#13405E" stroke-width="0.5" stroke-linecap="round" stroke-linejoin="round" points="51.1,69.3 
				34.2,89.3 55.8,108.5 75,86.2 			"/>
			<path fill="#EDD9C5" d="M42.4,83.1c-6.9-10.3-5-24.3,4.8-31.9l22.3-17.7c11.8-9.4,44.8,32.3,33,41.6L80.2,92.8
				c-5.2,4.2-11.7,5.7-17.9,4.8"/>
			<path fill="none" stroke="#13405E" stroke-width="0.5" stroke-linecap="round" stroke-linejoin="round" d="M42.4,83.1
				c-6.9-10.3-5-24.3,4.8-31.9l22.3-17.7c11.8-9.4,44.8,32.3,33,41.6L80.2,92.8c-5.2,4.2-11.7,5.7-17.9,4.8"/>
			<g>
				<g>
					<path fill="#F4FBFE" d="M116.7,97.4l-42.5,12c-2.7,0.8-5.5-0.8-6.2-3.5L43.3,18.7c-0.8-2.7,0.8-5.5,3.5-6.2l42.5-12
						c2.7-0.8,5.5,0.8,6.2,3.5l24.7,87.3C121,93.9,119.4,96.7,116.7,97.4z"/>
					<path fill="none" stroke="#13405E" stroke-width="0.5" stroke-linecap="round" stroke-linejoin="round" d="M116.7,97.4
						l-42.5,12c-2.7,0.8-5.5-0.8-6.2-3.5L43.3,18.7c-0.8-2.7,0.8-5.5,3.5-6.2l42.5-12c2.7-0.8,5.5,0.8,6.2,3.5l24.7,87.3
						C121,93.9,119.4,96.7,116.7,97.4z"/>
					<path fill="none" stroke="#13405E" stroke-width="0.5" stroke-linecap="round" stroke-linejoin="round" d="M116.7,97.4
						l-42.5,12c-2.7,0.8-5.5-0.8-6.2-3.5L43.3,18.7c-0.8-2.7,0.8-5.5,3.5-6.2l42.5-12c2.7-0.8,5.5,0.8,6.2,3.5l24.7,87.3
						C121,93.9,119.4,96.7,116.7,97.4z"/>
					<path fill="#FFFFFF" d="M116.7,97.5l-42.5,12c-2.7,0.8-5.5-0.8-6.3-3.5L43.3,18.7c-0.8-2.7,0.8-5.5,3.5-6.3l42.5-12
						C92-0.3,94.8,1.3,95.6,4l24.6,87.2C121,93.9,119.4,96.7,116.7,97.5z"/>
					<circle fill="#13405E" cx="89.5" cy="7.3" r="1.6"/>
					<path fill="none" stroke="#13405E" stroke-width="0.5" stroke-linecap="round" stroke-linejoin="round" d="M116.7,97.4
						l-42.5,12c-2.7,0.8-5.5-0.8-6.2-3.5L43.3,18.7c-0.8-2.7,0.8-5.5,3.5-6.2l42.5-12c2.7-0.8,5.5,0.8,6.2,3.5l24.7,87.3
						C121,93.9,119.4,96.7,116.7,97.4z"/>
				</g>
			</g>
			<path fill="#EDD9C5" d="M45.2,86.2c0,0-13-10.4-3.5-31c3-6.6-0.6-25.1-0.6-25.1c-1.6-5.7,9.3-8.8,10.9-3.1c0,0,0.9,3.2,5.4,19.1
				C62,62.1,64.6,69.6,60,77"/>
			<g>
				<polygon fill="#AED3EA" points="41.5,30.9 41.5,30.9 41.5,30.9 				"/>
				<path fill="#EAD0B9" d="M43.1,75.2c-2-4.7-1.4-9.3-0.7-11.5C44,58.5,44,51.2,43,43.1c0.3,4.6,0.1,9.1-1.1,11.8
					c-6.1,14.2-3.2,21.5,0.2,27.4c0.6,1,3.3,3.9,3.2,3.7l0,0l1.1-1.5C47.1,80.7,45.2,80.1,43.1,75.2z"/>
			</g>
			<path fill="#EDD9C5" d="M109.3,40.7l-3.5,2.9c-2.5,2.1-6.2,1.7-8.2-0.7l0,0c-2.1-2.5-1.7-6.2,0.7-8.2l3.5-2.9
				c2.5-2.1,6.2-1.7,8.2,0.7l0,0C112.2,34.9,111.8,38.6,109.3,40.7z"/>
			<path opacity="0.5" fill="#FFFFFF" d="M108.2,38.7l-4,3.4c-0.9-2.1-2.4-3.9-4.6-5.5l4-3.4C106,34.1,107.4,36.1,108.2,38.7z"/>
			<path fill="#EDD9C5" d="M113.2,53.4l-3.8,2.4c-2.7,1.7-6.3,0.9-8.1-1.8l0,0c-1.7-2.7-0.9-6.3,1.8-8.1l3.8-2.4
				c2.7-1.7,6.3-0.9,8.1,1.8l0,0C116.7,48.1,115.9,51.7,113.2,53.4z"/>
			<path opacity="0.5" fill="#FFFFFF" d="M112.3,51.1l-4.4,3c-0.7-2.1-2-4.1-4-6l4.4-3C110.5,46.3,111.8,48.4,112.3,51.1z"/>
			<path fill="#EDD9C5" d="M113.8,66.8L113.8,66.8c-2.7,1.7-6.3,0.9-8.1-1.8l0,0c-1.7-2.7-0.9-6.3,1.8-8.1l0,0
				c2.7-1.7,6.3-0.9,8.1,1.8l0,0C117.4,61.5,116.5,65.1,113.8,66.8z"/>
			<path fill="none" stroke="#13405E" stroke-width="0.5" stroke-linecap="round" stroke-linejoin="round" d="M109.3,40.7l-3.5,2.9
				c-2.5,2.1-6.2,1.7-8.2-0.7l0,0c-2.1-2.5-1.7-6.2,0.7-8.2l3.5-2.9c2.5-2.1,6.2-1.7,8.2,0.7l0,0C112.2,34.9,111.8,38.6,109.3,40.7z
				"/>
			<path fill="none" stroke="#13405E" stroke-width="0.5" stroke-linecap="round" stroke-linejoin="round" d="M113.2,53.4l-3.8,2.4
				c-2.7,1.7-6.3,0.9-8.1-1.8l0,0c-1.7-2.7-0.9-6.3,1.8-8.1l3.8-2.4c2.7-1.7,6.3-0.9,8.1,1.8l0,0C116.7,48.1,115.9,51.7,113.2,53.4z
				"/>
			<path fill="none" stroke="#13405E" stroke-width="0.5" stroke-linecap="round" stroke-linejoin="round" d="M113.8,66.8
				L113.8,66.8c-2.7,1.7-6.3,0.9-8.1-1.8l0,0c-1.7-2.7-0.9-6.3,1.8-8.1l0,0c2.7-1.7,6.3-0.9,8.1,1.8l0,0
				C117.4,61.5,116.5,65.1,113.8,66.8z"/>
			<path opacity="0.5" fill="#FFFFFF" d="M115,63.1l-2.4,1.6c-0.2-2.1-1.4-3.9-3.8-5.6l2.4-1.6C113.6,58.4,114.9,60.3,115,63.1z"/>
			<path fill="#F4FBFE" d="M54.9,113.9l-27-20c-1.4-1.1-1.7-3.1-0.7-4.5l4.3-5.8c1.1-1.4,3.1-1.7,4.5-0.7l27,20
				c1.4,1.1,1.7,3.1,0.7,4.5l-4.3,5.8C58.4,114.7,56.4,115,54.9,113.9z"/>
			<path fill="none" stroke="#13405E" stroke-width="0.5" stroke-linecap="round" stroke-linejoin="round" d="M54.9,113.9l-27-20
				c-1.4-1.1-1.7-3.1-0.7-4.5l4.3-5.8c1.1-1.4,3.1-1.7,4.5-0.7l27,20c1.4,1.1,1.7,3.1,0.7,4.5l-4.3,5.8
				C58.4,114.7,56.4,115,54.9,113.9z"/>
			<path fill="#89BEE2" d="M46.6,134.9c-5,6.7-40.9-19.9-35.9-26.6l14.6-20.6l35.9,26.6L46.6,134.9z"/>
			<path fill="none" stroke="#13405E" stroke-width="0.5" stroke-linecap="round" stroke-linejoin="round" d="M46.6,134.9
				c-5,6.7-40.9-19.9-35.9-26.6l14.6-20.6l35.9,26.6L46.6,134.9z"/>
			<path fill="none" stroke="#13405E" stroke-width="0.5" stroke-linecap="round" stroke-linejoin="round" d="M45.2,86.2
				c0,0-13-10.4-3.5-31c3-6.6-0.6-25.1-0.6-25.1c-1.6-5.7,9.3-8.8,10.9-3.1c0,0,0.9,3.2,5.4,19.1C62,62.1,64.6,69.6,60,77"/>
			<circle fill="#E45374" cx="81.8" cy="55.1" r="15.4"/>
			<g>
				
					<line fill="none" stroke="#FFFFFF" stroke-width="2.5" stroke-linecap="round" stroke-linejoin="round" x1="84.6" y1="48.4" x2="79" y2="61.8"/>
				
					<line fill="none" stroke="#FFFFFF" stroke-width="2.5" stroke-linecap="round" stroke-linejoin="round" x1="88.5" y1="57.9" x2="75.1" y2="52.3"/>
			</g>
		</g>
	</g>
	<g>
		<path fill="#E45374" d="M152.4,14.6c1.6-2.6,11.2-7.4,11.2-7.4s-0.2,10.7-1.8,13.3c-1.6,2.6-5,3.4-7.6,1.7
			C151.6,20.6,150.8,17.1,152.4,14.6z"/>
		<g>
			<path fill="#89BEE2" d="M149.7,18.5l9.6,6c-2.5,25.4-21.6,35.9-29,39.1c-1.4,0.6-3-0.4-3.1-2C126.8,53.7,128,31.8,149.7,18.5z"/>
			<path fill="#DBEABE" d="M128.3,48.5l13.4,8.4c-4.4,3.5-8.7,5.6-11.3,6.7c-1.4,0.6-3.1-0.4-3.1-2C127.1,58.7,127.1,54,128.3,48.5z
				"/>
			<path fill="none" stroke="#13405E" stroke-width="0.5" stroke-linecap="round" stroke-linejoin="round" d="M149.7,18.5l9.6,6
				c-2.5,25.4-21.6,35.9-29,39.1c-1.4,0.6-3-0.4-3.1-2C126.8,53.7,128,31.8,149.7,18.5z"/>
			<circle fill="#FFFFFF" cx="140.3" cy="44.3" r="4.2"/>
			<path fill="#DBEABE" d="M159.2,13.9l0.2,0.1c0.6,0.4,0.8,1.2,0.4,1.8l-7.1,11.4c-0.4,0.6-1.2,0.8-1.8,0.4l-0.2-0.1
				c-0.6-0.4-0.8-1.2-0.4-1.8l7.1-11.4C157.8,13.7,158.6,13.6,159.2,13.9z"/>
			<path fill="#DBEABE" d="M149.7,18.5c-7.2-4.5-2.4-12.2-2.4-12.2c-9.2,9.4-4.2,16.3-3.7,16.6C145.5,21.4,147.5,19.9,149.7,18.5z"
				/>
			<path fill="#DBEABE" d="M158.1,32c0.5,0.3,8.8,1.8,13.3-10.6c0,0-4.8,7.7-12,3.2C159.1,27.2,158.6,29.6,158.1,32z"/>
			<path fill="none" stroke="#13405E" stroke-width="0.5" stroke-linecap="round" stroke-linejoin="round" d="M159.2,13.9l0.2,0.1
				c0.6,0.4,0.8,1.2,0.4,1.8l-7.1,11.4c-0.4,0.6-1.2,0.8-1.8,0.4l-0.2-0.1c-0.6-0.4-0.8-1.2-0.4-1.8l7.1-11.4
				C157.8,13.7,158.6,13.6,159.2,13.9z"/>
			<path fill="none" stroke="#13405E" stroke-width="0.5" stroke-linecap="round" stroke-linejoin="round" d="M149.7,18.5
				c-7.2-4.5-2.4-12.2-2.4-12.2c-9.2,9.4-4.2,16.3-3.7,16.6C145.5,21.4,147.5,19.9,149.7,18.5z"/>
			<path fill="none" stroke="#13405E" stroke-width="0.5" stroke-linecap="round" stroke-linejoin="round" d="M158.1,32
				c0.5,0.3,8.8,1.8,13.3-10.6c0,0-4.8,7.7-12,3.2C159.1,27.2,158.6,29.6,158.1,32z"/>
		</g>
	</g>
</g>
</svg>
